G04 (created by PCBNEW (2013-07-07 BZR 4022)-stable) date 20-Nov-13 2:59:34 PM*
%MOIN*%
G04 Gerber Fmt 3.4, Leading zero omitted, Abs format*
%FSLAX34Y34*%
G01*
G70*
G90*
G04 APERTURE LIST*
%ADD10C,0.00590551*%
%ADD11R,0.0787402X0.0787402*%
%ADD12C,0.0787402*%
%ADD13R,0.0669291X0.0669291*%
%ADD14C,0.0669291*%
%ADD15R,0.0629921X0.0629921*%
%ADD16C,0.0629921*%
%ADD17R,0.0708661X0.0708661*%
%ADD18C,0.0708661*%
%ADD19C,0.0590551*%
%ADD20C,0.1516*%
%ADD21C,0.06*%
%ADD22C,0.1*%
%ADD23R,0.06X0.06*%
%ADD24C,0.15*%
%ADD25R,0.055X0.055*%
%ADD26C,0.055*%
%ADD27C,0.15748*%
G04 APERTURE END LIST*
G54D10*
G54D11*
X34645Y-64413D03*
G54D12*
X34645Y-65413D03*
X34645Y-66413D03*
G54D11*
X30708Y-64413D03*
G54D12*
X30708Y-65413D03*
X30708Y-66413D03*
G54D11*
X26771Y-64413D03*
G54D12*
X26771Y-65413D03*
X26771Y-66413D03*
G54D11*
X38582Y-64413D03*
G54D12*
X38582Y-65413D03*
X38582Y-66413D03*
G54D13*
X56062Y-82027D03*
G54D14*
X55062Y-82027D03*
X54062Y-82027D03*
X53062Y-82027D03*
X52062Y-82027D03*
G54D15*
X30732Y-85039D03*
G54D16*
X29732Y-85039D03*
X28732Y-85039D03*
X27732Y-85039D03*
G54D17*
X55759Y-73047D03*
G54D18*
X55759Y-74047D03*
G54D17*
X42385Y-70992D03*
G54D18*
X42385Y-71992D03*
G54D17*
X37688Y-76480D03*
G54D18*
X38688Y-76480D03*
G54D17*
X48669Y-68783D03*
G54D18*
X48669Y-69783D03*
G54D19*
X58287Y-71228D03*
X58287Y-65228D03*
X50200Y-71992D03*
X44200Y-71992D03*
X55736Y-71228D03*
X55736Y-65228D03*
X24881Y-71503D03*
X24881Y-65503D03*
X48868Y-75720D03*
X48868Y-81720D03*
X36614Y-71503D03*
X36614Y-65503D03*
X32677Y-71503D03*
X32677Y-65503D03*
X28740Y-71503D03*
X28740Y-65503D03*
G54D17*
X51157Y-74710D03*
G54D18*
X51157Y-75710D03*
X51157Y-76710D03*
X51157Y-77710D03*
X54157Y-77710D03*
X54157Y-76710D03*
X54157Y-75710D03*
X54157Y-74710D03*
G54D19*
X55598Y-76677D03*
X55598Y-77677D03*
X44370Y-76025D03*
X44370Y-77025D03*
X44582Y-82996D03*
X44582Y-83996D03*
X46913Y-83996D03*
X46913Y-82996D03*
X38730Y-81280D03*
X39730Y-81280D03*
G54D17*
X27750Y-79400D03*
G54D18*
X28750Y-79400D03*
X29750Y-79400D03*
X30750Y-79400D03*
X31750Y-79400D03*
X32750Y-79400D03*
X33750Y-79400D03*
X34750Y-79400D03*
X34750Y-76400D03*
X33750Y-76400D03*
X32750Y-76400D03*
X31750Y-76400D03*
X30750Y-76400D03*
X29750Y-76400D03*
X28750Y-76400D03*
X27750Y-76400D03*
G54D17*
X58881Y-78822D03*
G54D18*
X58881Y-77822D03*
X58881Y-76822D03*
G54D17*
X46712Y-75940D03*
G54D18*
X46712Y-74940D03*
X46712Y-73940D03*
G54D20*
X53501Y-58311D03*
X58001Y-58311D03*
G54D21*
X57501Y-60811D03*
X57251Y-61811D03*
X56501Y-60811D03*
X56251Y-61811D03*
X55501Y-60811D03*
X55251Y-61811D03*
X54501Y-60811D03*
G54D22*
X52701Y-57110D03*
X58801Y-57110D03*
G54D23*
X54251Y-61811D03*
G54D20*
X44482Y-58299D03*
X48982Y-58299D03*
G54D21*
X48482Y-60799D03*
X48232Y-61799D03*
X47482Y-60799D03*
X47232Y-61799D03*
X46482Y-60799D03*
X46232Y-61799D03*
X45482Y-60799D03*
G54D22*
X43682Y-57098D03*
X49782Y-57098D03*
G54D23*
X45232Y-61799D03*
G54D24*
X36278Y-58433D03*
X26278Y-58433D03*
G54D11*
X29078Y-59433D03*
G54D12*
X30178Y-59433D03*
X31228Y-59433D03*
X32328Y-59433D03*
X33428Y-59433D03*
X29628Y-58433D03*
X30728Y-58433D03*
X31778Y-58433D03*
X32878Y-58433D03*
G54D25*
X57582Y-84448D03*
G54D26*
X57582Y-82086D03*
G54D25*
X51441Y-60976D03*
G54D26*
X51441Y-58614D03*
G54D25*
X59334Y-75220D03*
G54D26*
X59334Y-72858D03*
G54D25*
X57299Y-80370D03*
G54D26*
X57299Y-78007D03*
G54D12*
X38779Y-84744D03*
X40748Y-84744D03*
G54D27*
X60728Y-56200D03*
X23622Y-56200D03*
X23622Y-85531D03*
X60728Y-85531D03*
M02*
