G04 (created by PCBNEW (2013-07-07 BZR 4022)-stable) date 20-Nov-13 2:59:33 PM*
%MOIN*%
G04 Gerber Fmt 3.4, Leading zero omitted, Abs format*
%FSLAX34Y34*%
G01*
G70*
G90*
G04 APERTURE LIST*
%ADD10C,0.00590551*%
%ADD11R,0.0787402X0.0787402*%
%ADD12C,0.0787402*%
%ADD13R,0.0669291X0.0669291*%
%ADD14C,0.0669291*%
%ADD15R,0.0629921X0.0629921*%
%ADD16C,0.0629921*%
%ADD17R,0.0708661X0.0708661*%
%ADD18C,0.0708661*%
%ADD19C,0.0590551*%
%ADD20C,0.1516*%
%ADD21C,0.06*%
%ADD22C,0.1*%
%ADD23R,0.06X0.06*%
%ADD24C,0.15*%
%ADD25R,0.055X0.055*%
%ADD26C,0.055*%
%ADD27C,0.15748*%
%ADD28C,0.04*%
%ADD29C,0.01*%
G04 APERTURE END LIST*
G54D10*
G54D11*
X34645Y-64413D03*
G54D12*
X34645Y-65413D03*
X34645Y-66413D03*
G54D11*
X30708Y-64413D03*
G54D12*
X30708Y-65413D03*
X30708Y-66413D03*
G54D11*
X26771Y-64413D03*
G54D12*
X26771Y-65413D03*
X26771Y-66413D03*
G54D11*
X38582Y-64413D03*
G54D12*
X38582Y-65413D03*
X38582Y-66413D03*
G54D13*
X56062Y-82027D03*
G54D14*
X55062Y-82027D03*
X54062Y-82027D03*
X53062Y-82027D03*
X52062Y-82027D03*
G54D15*
X30732Y-85039D03*
G54D16*
X29732Y-85039D03*
X28732Y-85039D03*
X27732Y-85039D03*
G54D17*
X55759Y-73047D03*
G54D18*
X55759Y-74047D03*
G54D17*
X42385Y-70992D03*
G54D18*
X42385Y-71992D03*
G54D17*
X37688Y-76480D03*
G54D18*
X38688Y-76480D03*
G54D17*
X48669Y-68783D03*
G54D18*
X48669Y-69783D03*
G54D19*
X58287Y-71228D03*
X58287Y-65228D03*
X50200Y-71992D03*
X44200Y-71992D03*
X55736Y-71228D03*
X55736Y-65228D03*
X24881Y-71503D03*
X24881Y-65503D03*
X48868Y-75720D03*
X48868Y-81720D03*
X36614Y-71503D03*
X36614Y-65503D03*
X32677Y-71503D03*
X32677Y-65503D03*
X28740Y-71503D03*
X28740Y-65503D03*
G54D17*
X51157Y-74710D03*
G54D18*
X51157Y-75710D03*
X51157Y-76710D03*
X51157Y-77710D03*
X54157Y-77710D03*
X54157Y-76710D03*
X54157Y-75710D03*
X54157Y-74710D03*
G54D19*
X55598Y-76677D03*
X55598Y-77677D03*
X44370Y-76025D03*
X44370Y-77025D03*
X44582Y-82996D03*
X44582Y-83996D03*
X46913Y-83996D03*
X46913Y-82996D03*
X38730Y-81280D03*
X39730Y-81280D03*
G54D17*
X27750Y-79400D03*
G54D18*
X28750Y-79400D03*
X29750Y-79400D03*
X30750Y-79400D03*
X31750Y-79400D03*
X32750Y-79400D03*
X33750Y-79400D03*
X34750Y-79400D03*
X34750Y-76400D03*
X33750Y-76400D03*
X32750Y-76400D03*
X31750Y-76400D03*
X30750Y-76400D03*
X29750Y-76400D03*
X28750Y-76400D03*
X27750Y-76400D03*
G54D17*
X58881Y-78822D03*
G54D18*
X58881Y-77822D03*
X58881Y-76822D03*
G54D17*
X46712Y-75940D03*
G54D18*
X46712Y-74940D03*
X46712Y-73940D03*
G54D20*
X53501Y-58311D03*
X58001Y-58311D03*
G54D21*
X57501Y-60811D03*
X57251Y-61811D03*
X56501Y-60811D03*
X56251Y-61811D03*
X55501Y-60811D03*
X55251Y-61811D03*
X54501Y-60811D03*
G54D22*
X52701Y-57110D03*
X58801Y-57110D03*
G54D23*
X54251Y-61811D03*
G54D20*
X44482Y-58299D03*
X48982Y-58299D03*
G54D21*
X48482Y-60799D03*
X48232Y-61799D03*
X47482Y-60799D03*
X47232Y-61799D03*
X46482Y-60799D03*
X46232Y-61799D03*
X45482Y-60799D03*
G54D22*
X43682Y-57098D03*
X49782Y-57098D03*
G54D23*
X45232Y-61799D03*
G54D24*
X36278Y-58433D03*
X26278Y-58433D03*
G54D11*
X29078Y-59433D03*
G54D12*
X30178Y-59433D03*
X31228Y-59433D03*
X32328Y-59433D03*
X33428Y-59433D03*
X29628Y-58433D03*
X30728Y-58433D03*
X31778Y-58433D03*
X32878Y-58433D03*
G54D25*
X57582Y-84448D03*
G54D26*
X57582Y-82086D03*
G54D25*
X51441Y-60976D03*
G54D26*
X51441Y-58614D03*
G54D25*
X59334Y-75220D03*
G54D26*
X59334Y-72858D03*
G54D25*
X57299Y-80370D03*
G54D26*
X57299Y-78007D03*
G54D12*
X38779Y-84744D03*
X40748Y-84744D03*
G54D27*
X60728Y-56200D03*
X23622Y-56200D03*
X23622Y-85531D03*
X60728Y-85531D03*
G54D28*
X58881Y-76822D02*
X55744Y-76822D01*
X55744Y-76822D02*
X55598Y-76677D01*
X59334Y-75220D02*
X59334Y-76370D01*
X59334Y-76370D02*
X58881Y-76822D01*
X54157Y-76710D02*
X55564Y-76710D01*
X55564Y-76710D02*
X55598Y-76677D01*
X55736Y-65228D02*
X55736Y-63358D01*
X56251Y-62842D02*
X56251Y-61811D01*
X55736Y-63358D02*
X56251Y-62842D01*
X58287Y-65228D02*
X58984Y-65228D01*
X60129Y-72063D02*
X59334Y-72858D01*
X60129Y-66374D02*
X60129Y-72063D01*
X58984Y-65228D02*
X60129Y-66374D01*
X55736Y-65228D02*
X58287Y-65228D01*
X56501Y-60811D02*
X56501Y-60289D01*
X47482Y-60072D02*
X47482Y-60799D01*
X47779Y-59775D02*
X47482Y-60072D01*
X55988Y-59775D02*
X47779Y-59775D01*
X56501Y-60289D02*
X55988Y-59775D01*
X56501Y-60811D02*
X56501Y-61561D01*
X56501Y-61561D02*
X56251Y-61811D01*
X47482Y-60799D02*
X47482Y-61549D01*
X47482Y-61549D02*
X47232Y-61799D01*
X46482Y-60799D02*
X46482Y-60261D01*
X44783Y-69783D02*
X48669Y-69783D01*
X42125Y-67125D02*
X44783Y-69783D01*
X42125Y-60334D02*
X42125Y-67125D01*
X42814Y-59645D02*
X42125Y-60334D01*
X45866Y-59645D02*
X42814Y-59645D01*
X46482Y-60261D02*
X45866Y-59645D01*
X44370Y-76025D02*
X44370Y-74161D01*
X46539Y-71992D02*
X50200Y-71992D01*
X44370Y-74161D02*
X46539Y-71992D01*
X48669Y-69783D02*
X49614Y-69783D01*
X50200Y-70370D02*
X50200Y-71992D01*
X49614Y-69783D02*
X50200Y-70370D01*
X50200Y-71992D02*
X51559Y-71992D01*
X53230Y-75710D02*
X54157Y-75710D01*
X52633Y-75114D02*
X53230Y-75710D01*
X52633Y-73066D02*
X52633Y-75114D01*
X51559Y-71992D02*
X52633Y-73066D01*
X46232Y-61799D02*
X46232Y-62366D01*
X55251Y-62279D02*
X55251Y-61811D01*
X54803Y-62728D02*
X55251Y-62279D01*
X46594Y-62728D02*
X54803Y-62728D01*
X46232Y-62366D02*
X46594Y-62728D01*
X55501Y-60811D02*
X55501Y-61561D01*
X55501Y-61561D02*
X55251Y-61811D01*
X46482Y-60799D02*
X46482Y-61549D01*
X46482Y-61549D02*
X46232Y-61799D01*
X44370Y-76025D02*
X46627Y-76025D01*
X46627Y-76025D02*
X46712Y-75940D01*
X46712Y-73940D02*
X50387Y-73940D01*
X50387Y-73940D02*
X51157Y-74710D01*
X54062Y-82027D02*
X54062Y-81204D01*
X47342Y-74940D02*
X46712Y-74940D01*
X47838Y-75437D02*
X47342Y-74940D01*
X47838Y-79633D02*
X47838Y-75437D01*
X48574Y-80370D02*
X47838Y-79633D01*
X53228Y-80370D02*
X48574Y-80370D01*
X54062Y-81204D02*
X53228Y-80370D01*
X58881Y-77822D02*
X59543Y-77822D01*
X53062Y-82803D02*
X53062Y-82027D01*
X53314Y-83055D02*
X53062Y-82803D01*
X59149Y-83055D02*
X53314Y-83055D01*
X59874Y-82330D02*
X59149Y-83055D01*
X59874Y-78153D02*
X59874Y-82330D01*
X59543Y-77822D02*
X59874Y-78153D01*
X51157Y-77710D02*
X51157Y-78437D01*
X51543Y-78822D02*
X58881Y-78822D01*
X51157Y-78437D02*
X51543Y-78822D01*
X51157Y-76710D02*
X50198Y-76710D01*
X55062Y-80259D02*
X55062Y-82027D01*
X54440Y-79637D02*
X55062Y-80259D01*
X50708Y-79637D02*
X54440Y-79637D01*
X49881Y-78811D02*
X50708Y-79637D01*
X49881Y-77027D02*
X49881Y-78811D01*
X50198Y-76710D02*
X49881Y-77027D01*
X48868Y-75720D02*
X51147Y-75720D01*
X51157Y-75730D02*
X51157Y-76710D01*
X51147Y-75720D02*
X51157Y-75730D01*
X24881Y-65503D02*
X24881Y-65236D01*
X25704Y-64413D02*
X26771Y-64413D01*
X24881Y-65236D02*
X25704Y-64413D01*
X28740Y-65503D02*
X28740Y-65236D01*
X29562Y-64413D02*
X30708Y-64413D01*
X28740Y-65236D02*
X29562Y-64413D01*
X32677Y-65503D02*
X32677Y-65177D01*
X33440Y-64413D02*
X34645Y-64413D01*
X32677Y-65177D02*
X33440Y-64413D01*
X36614Y-65503D02*
X36614Y-65039D01*
X37240Y-64413D02*
X38582Y-64413D01*
X36614Y-65039D02*
X37240Y-64413D01*
X38582Y-76374D02*
X38688Y-76480D01*
X38582Y-66413D02*
X38582Y-76374D01*
X38730Y-81280D02*
X38730Y-76521D01*
X38730Y-76521D02*
X38688Y-76480D01*
X38779Y-84744D02*
X38779Y-81329D01*
X38779Y-81329D02*
X38730Y-81280D01*
X34645Y-66413D02*
X38582Y-66413D01*
X30708Y-66413D02*
X34645Y-66413D01*
X26771Y-66413D02*
X30708Y-66413D01*
X34750Y-76400D02*
X37608Y-76400D01*
X37608Y-76400D02*
X37688Y-76480D01*
X48669Y-68783D02*
X55842Y-68783D01*
X55842Y-68783D02*
X58287Y-71228D01*
X48482Y-60799D02*
X51305Y-60799D01*
X51305Y-60799D02*
X51401Y-60895D01*
X24881Y-71503D02*
X24881Y-73531D01*
X24881Y-73531D02*
X27750Y-76400D01*
X32320Y-59537D02*
X32320Y-59672D01*
X39320Y-65413D02*
X38582Y-65413D01*
X39616Y-65118D02*
X39320Y-65413D01*
X39616Y-63129D02*
X39616Y-65118D01*
X36968Y-60482D02*
X39616Y-63129D01*
X35984Y-60482D02*
X36968Y-60482D01*
X33129Y-60482D02*
X35984Y-60482D01*
X32320Y-59672D02*
X33129Y-60482D01*
X30750Y-76400D02*
X30750Y-74879D01*
X34125Y-71503D02*
X36614Y-71503D01*
X30750Y-74879D02*
X34125Y-71503D01*
X29750Y-76400D02*
X29750Y-74431D01*
X29750Y-74431D02*
X32677Y-71503D01*
X28740Y-76390D02*
X28750Y-76400D01*
X28740Y-71503D02*
X28740Y-76390D01*
X42385Y-71992D02*
X44200Y-71992D01*
X55759Y-73047D02*
X55759Y-71251D01*
X55759Y-71251D02*
X55736Y-71228D01*
X34645Y-65413D02*
X35590Y-65413D01*
X32864Y-61181D02*
X31220Y-59537D01*
X34478Y-61181D02*
X32864Y-61181D01*
X35895Y-62598D02*
X34478Y-61181D01*
X35895Y-65108D02*
X35895Y-62598D01*
X35590Y-65413D02*
X35895Y-65108D01*
X30170Y-59537D02*
X30170Y-61498D01*
X31279Y-65413D02*
X30708Y-65413D01*
X31633Y-65059D02*
X31279Y-65413D01*
X31633Y-62962D02*
X31633Y-65059D01*
X30170Y-61498D02*
X31633Y-62962D01*
X29070Y-59537D02*
X29070Y-63813D01*
X27470Y-65413D02*
X26771Y-65413D01*
X29070Y-63813D02*
X27470Y-65413D01*
X30750Y-79400D02*
X30750Y-85021D01*
X30750Y-85021D02*
X30732Y-85039D01*
X29750Y-79400D02*
X29750Y-85021D01*
X29750Y-85021D02*
X29732Y-85039D01*
X28732Y-85039D02*
X28732Y-79417D01*
X28732Y-79417D02*
X28750Y-79400D01*
X27732Y-85039D02*
X27732Y-79417D01*
X27732Y-79417D02*
X27750Y-79400D01*
X60622Y-74874D02*
X59795Y-74047D01*
X60622Y-83212D02*
X60622Y-74874D01*
X60118Y-83716D02*
X60622Y-83212D01*
X52874Y-83716D02*
X60118Y-83716D01*
X52062Y-82027D02*
X52062Y-82905D01*
X59795Y-74047D02*
X55759Y-74047D01*
X52062Y-82905D02*
X52874Y-83716D01*
X46913Y-83996D02*
X48570Y-83996D01*
X50539Y-82027D02*
X52062Y-82027D01*
X48570Y-83996D02*
X50539Y-82027D01*
X44582Y-83996D02*
X46913Y-83996D01*
X54157Y-74710D02*
X55301Y-74710D01*
X55301Y-74710D02*
X55759Y-74252D01*
X55759Y-74252D02*
X55759Y-74047D01*
G54D10*
G36*
X58527Y-77322D02*
X58369Y-77480D01*
X58277Y-77702D01*
X58277Y-77942D01*
X58369Y-78164D01*
X58439Y-78234D01*
X58386Y-78256D01*
X58315Y-78326D01*
X58296Y-78372D01*
X57829Y-78372D01*
X57689Y-78372D01*
X57712Y-78350D01*
X57667Y-78304D01*
X57759Y-78280D01*
X57829Y-78083D01*
X57817Y-77875D01*
X57759Y-77735D01*
X57667Y-77710D01*
X57596Y-77781D01*
X57596Y-77640D01*
X57572Y-77547D01*
X57375Y-77477D01*
X57166Y-77489D01*
X57026Y-77547D01*
X57002Y-77640D01*
X57299Y-77937D01*
X57596Y-77640D01*
X57596Y-77781D01*
X57369Y-78007D01*
X57375Y-78013D01*
X57304Y-78084D01*
X57299Y-78078D01*
X57293Y-78084D01*
X57228Y-78019D01*
X57222Y-78013D01*
X57228Y-78007D01*
X56931Y-77710D01*
X56838Y-77735D01*
X56769Y-77932D01*
X56780Y-78140D01*
X56838Y-78280D01*
X56931Y-78304D01*
X56886Y-78350D01*
X56908Y-78372D01*
X56148Y-78372D01*
X56148Y-77757D01*
X56137Y-77541D01*
X56075Y-77392D01*
X55980Y-77365D01*
X55669Y-77677D01*
X55980Y-77988D01*
X56075Y-77962D01*
X56148Y-77757D01*
X56148Y-78372D01*
X55910Y-78372D01*
X55910Y-78059D01*
X55598Y-77747D01*
X55527Y-77818D01*
X55527Y-77677D01*
X55215Y-77365D01*
X55121Y-77392D01*
X55048Y-77596D01*
X55059Y-77813D01*
X55121Y-77962D01*
X55215Y-77988D01*
X55527Y-77677D01*
X55527Y-77818D01*
X55286Y-78059D01*
X55313Y-78154D01*
X55517Y-78227D01*
X55734Y-78216D01*
X55883Y-78154D01*
X55910Y-78059D01*
X55910Y-78372D01*
X54766Y-78372D01*
X54766Y-77805D01*
X54756Y-77565D01*
X54683Y-77390D01*
X54582Y-77356D01*
X54228Y-77710D01*
X54582Y-78065D01*
X54683Y-78031D01*
X54766Y-77805D01*
X54766Y-78372D01*
X54512Y-78372D01*
X54512Y-78135D01*
X54157Y-77781D01*
X54086Y-77852D01*
X54086Y-77710D01*
X53732Y-77356D01*
X53631Y-77390D01*
X53548Y-77615D01*
X53558Y-77856D01*
X53631Y-78031D01*
X53732Y-78065D01*
X54086Y-77710D01*
X54086Y-77852D01*
X53802Y-78135D01*
X53836Y-78236D01*
X54062Y-78319D01*
X54302Y-78309D01*
X54478Y-78236D01*
X54512Y-78135D01*
X54512Y-78372D01*
X51729Y-78372D01*
X51607Y-78250D01*
X51607Y-78115D01*
X51669Y-78053D01*
X51761Y-77831D01*
X51761Y-77590D01*
X51670Y-77368D01*
X51512Y-77210D01*
X51669Y-77053D01*
X51761Y-76831D01*
X51761Y-76590D01*
X51670Y-76368D01*
X51607Y-76306D01*
X51607Y-76115D01*
X51669Y-76053D01*
X51761Y-75831D01*
X51761Y-75590D01*
X51670Y-75368D01*
X51600Y-75298D01*
X51653Y-75277D01*
X51723Y-75206D01*
X51761Y-75114D01*
X51761Y-75015D01*
X51761Y-74306D01*
X51723Y-74214D01*
X51653Y-74144D01*
X51561Y-74106D01*
X51462Y-74106D01*
X51189Y-74106D01*
X50705Y-73622D01*
X50560Y-73525D01*
X50387Y-73490D01*
X47117Y-73490D01*
X47055Y-73428D01*
X46833Y-73336D01*
X46592Y-73336D01*
X46370Y-73428D01*
X46200Y-73598D01*
X46108Y-73820D01*
X46108Y-74060D01*
X46199Y-74282D01*
X46357Y-74441D01*
X46200Y-74598D01*
X46108Y-74820D01*
X46108Y-75060D01*
X46199Y-75282D01*
X46269Y-75352D01*
X46216Y-75374D01*
X46146Y-75444D01*
X46108Y-75536D01*
X46108Y-75575D01*
X44820Y-75575D01*
X44820Y-74347D01*
X46725Y-72442D01*
X49879Y-72442D01*
X49891Y-72454D01*
X50091Y-72537D01*
X50308Y-72537D01*
X50509Y-72454D01*
X50521Y-72442D01*
X51372Y-72442D01*
X52183Y-73253D01*
X52183Y-75114D01*
X52218Y-75286D01*
X52315Y-75432D01*
X52912Y-76028D01*
X53058Y-76126D01*
X53230Y-76160D01*
X53752Y-76160D01*
X53802Y-76210D01*
X53645Y-76367D01*
X53553Y-76589D01*
X53553Y-76830D01*
X53644Y-77052D01*
X53814Y-77222D01*
X53822Y-77226D01*
X53802Y-77285D01*
X54157Y-77639D01*
X54512Y-77285D01*
X54492Y-77226D01*
X54499Y-77223D01*
X54562Y-77160D01*
X55340Y-77160D01*
X55374Y-77174D01*
X55313Y-77199D01*
X55286Y-77294D01*
X55598Y-77606D01*
X55910Y-77294D01*
X55904Y-77272D01*
X58477Y-77272D01*
X58527Y-77322D01*
X58527Y-77322D01*
G37*
G54D29*
X58527Y-77322D02*
X58369Y-77480D01*
X58277Y-77702D01*
X58277Y-77942D01*
X58369Y-78164D01*
X58439Y-78234D01*
X58386Y-78256D01*
X58315Y-78326D01*
X58296Y-78372D01*
X57829Y-78372D01*
X57689Y-78372D01*
X57712Y-78350D01*
X57667Y-78304D01*
X57759Y-78280D01*
X57829Y-78083D01*
X57817Y-77875D01*
X57759Y-77735D01*
X57667Y-77710D01*
X57596Y-77781D01*
X57596Y-77640D01*
X57572Y-77547D01*
X57375Y-77477D01*
X57166Y-77489D01*
X57026Y-77547D01*
X57002Y-77640D01*
X57299Y-77937D01*
X57596Y-77640D01*
X57596Y-77781D01*
X57369Y-78007D01*
X57375Y-78013D01*
X57304Y-78084D01*
X57299Y-78078D01*
X57293Y-78084D01*
X57228Y-78019D01*
X57222Y-78013D01*
X57228Y-78007D01*
X56931Y-77710D01*
X56838Y-77735D01*
X56769Y-77932D01*
X56780Y-78140D01*
X56838Y-78280D01*
X56931Y-78304D01*
X56886Y-78350D01*
X56908Y-78372D01*
X56148Y-78372D01*
X56148Y-77757D01*
X56137Y-77541D01*
X56075Y-77392D01*
X55980Y-77365D01*
X55669Y-77677D01*
X55980Y-77988D01*
X56075Y-77962D01*
X56148Y-77757D01*
X56148Y-78372D01*
X55910Y-78372D01*
X55910Y-78059D01*
X55598Y-77747D01*
X55527Y-77818D01*
X55527Y-77677D01*
X55215Y-77365D01*
X55121Y-77392D01*
X55048Y-77596D01*
X55059Y-77813D01*
X55121Y-77962D01*
X55215Y-77988D01*
X55527Y-77677D01*
X55527Y-77818D01*
X55286Y-78059D01*
X55313Y-78154D01*
X55517Y-78227D01*
X55734Y-78216D01*
X55883Y-78154D01*
X55910Y-78059D01*
X55910Y-78372D01*
X54766Y-78372D01*
X54766Y-77805D01*
X54756Y-77565D01*
X54683Y-77390D01*
X54582Y-77356D01*
X54228Y-77710D01*
X54582Y-78065D01*
X54683Y-78031D01*
X54766Y-77805D01*
X54766Y-78372D01*
X54512Y-78372D01*
X54512Y-78135D01*
X54157Y-77781D01*
X54086Y-77852D01*
X54086Y-77710D01*
X53732Y-77356D01*
X53631Y-77390D01*
X53548Y-77615D01*
X53558Y-77856D01*
X53631Y-78031D01*
X53732Y-78065D01*
X54086Y-77710D01*
X54086Y-77852D01*
X53802Y-78135D01*
X53836Y-78236D01*
X54062Y-78319D01*
X54302Y-78309D01*
X54478Y-78236D01*
X54512Y-78135D01*
X54512Y-78372D01*
X51729Y-78372D01*
X51607Y-78250D01*
X51607Y-78115D01*
X51669Y-78053D01*
X51761Y-77831D01*
X51761Y-77590D01*
X51670Y-77368D01*
X51512Y-77210D01*
X51669Y-77053D01*
X51761Y-76831D01*
X51761Y-76590D01*
X51670Y-76368D01*
X51607Y-76306D01*
X51607Y-76115D01*
X51669Y-76053D01*
X51761Y-75831D01*
X51761Y-75590D01*
X51670Y-75368D01*
X51600Y-75298D01*
X51653Y-75277D01*
X51723Y-75206D01*
X51761Y-75114D01*
X51761Y-75015D01*
X51761Y-74306D01*
X51723Y-74214D01*
X51653Y-74144D01*
X51561Y-74106D01*
X51462Y-74106D01*
X51189Y-74106D01*
X50705Y-73622D01*
X50560Y-73525D01*
X50387Y-73490D01*
X47117Y-73490D01*
X47055Y-73428D01*
X46833Y-73336D01*
X46592Y-73336D01*
X46370Y-73428D01*
X46200Y-73598D01*
X46108Y-73820D01*
X46108Y-74060D01*
X46199Y-74282D01*
X46357Y-74441D01*
X46200Y-74598D01*
X46108Y-74820D01*
X46108Y-75060D01*
X46199Y-75282D01*
X46269Y-75352D01*
X46216Y-75374D01*
X46146Y-75444D01*
X46108Y-75536D01*
X46108Y-75575D01*
X44820Y-75575D01*
X44820Y-74347D01*
X46725Y-72442D01*
X49879Y-72442D01*
X49891Y-72454D01*
X50091Y-72537D01*
X50308Y-72537D01*
X50509Y-72454D01*
X50521Y-72442D01*
X51372Y-72442D01*
X52183Y-73253D01*
X52183Y-75114D01*
X52218Y-75286D01*
X52315Y-75432D01*
X52912Y-76028D01*
X53058Y-76126D01*
X53230Y-76160D01*
X53752Y-76160D01*
X53802Y-76210D01*
X53645Y-76367D01*
X53553Y-76589D01*
X53553Y-76830D01*
X53644Y-77052D01*
X53814Y-77222D01*
X53822Y-77226D01*
X53802Y-77285D01*
X54157Y-77639D01*
X54512Y-77285D01*
X54492Y-77226D01*
X54499Y-77223D01*
X54562Y-77160D01*
X55340Y-77160D01*
X55374Y-77174D01*
X55313Y-77199D01*
X55286Y-77294D01*
X55598Y-77606D01*
X55910Y-77294D01*
X55904Y-77272D01*
X58477Y-77272D01*
X58527Y-77322D01*
G54D10*
G36*
X59424Y-82144D02*
X58963Y-82605D01*
X58112Y-82605D01*
X58112Y-82162D01*
X58101Y-81953D01*
X58043Y-81813D01*
X57950Y-81789D01*
X57879Y-81860D01*
X57879Y-81718D01*
X57855Y-81626D01*
X57824Y-81615D01*
X57824Y-80694D01*
X57824Y-80045D01*
X57786Y-79953D01*
X57716Y-79883D01*
X57624Y-79845D01*
X57524Y-79845D01*
X57411Y-79845D01*
X57349Y-79907D01*
X57349Y-80320D01*
X57761Y-80320D01*
X57824Y-80257D01*
X57824Y-80045D01*
X57824Y-80694D01*
X57824Y-80482D01*
X57761Y-80420D01*
X57349Y-80420D01*
X57349Y-80832D01*
X57411Y-80895D01*
X57524Y-80895D01*
X57624Y-80895D01*
X57716Y-80856D01*
X57786Y-80786D01*
X57824Y-80694D01*
X57824Y-81615D01*
X57658Y-81556D01*
X57449Y-81568D01*
X57309Y-81626D01*
X57285Y-81718D01*
X57582Y-82015D01*
X57879Y-81718D01*
X57879Y-81860D01*
X57653Y-82086D01*
X57950Y-82383D01*
X58043Y-82359D01*
X58112Y-82162D01*
X58112Y-82605D01*
X57715Y-82605D01*
X57855Y-82547D01*
X57879Y-82454D01*
X57582Y-82157D01*
X57512Y-82228D01*
X57512Y-82086D01*
X57249Y-81823D01*
X57249Y-80832D01*
X57249Y-80420D01*
X57249Y-80320D01*
X57249Y-79907D01*
X57186Y-79845D01*
X57073Y-79845D01*
X56974Y-79845D01*
X56882Y-79883D01*
X56812Y-79953D01*
X56774Y-80045D01*
X56774Y-80257D01*
X56836Y-80320D01*
X57249Y-80320D01*
X57249Y-80420D01*
X56836Y-80420D01*
X56774Y-80482D01*
X56774Y-80694D01*
X56812Y-80786D01*
X56882Y-80856D01*
X56974Y-80895D01*
X57073Y-80895D01*
X57186Y-80895D01*
X57249Y-80832D01*
X57249Y-81823D01*
X57214Y-81789D01*
X57122Y-81813D01*
X57052Y-82010D01*
X57064Y-82219D01*
X57122Y-82359D01*
X57214Y-82383D01*
X57512Y-82086D01*
X57512Y-82228D01*
X57285Y-82454D01*
X57309Y-82547D01*
X57474Y-82605D01*
X56464Y-82605D01*
X56539Y-82574D01*
X56609Y-82504D01*
X56647Y-82412D01*
X56647Y-82312D01*
X56647Y-81742D01*
X56647Y-81642D01*
X56609Y-81551D01*
X56539Y-81480D01*
X56447Y-81442D01*
X56175Y-81442D01*
X56112Y-81505D01*
X56112Y-81977D01*
X56585Y-81977D01*
X56647Y-81915D01*
X56647Y-81742D01*
X56647Y-82312D01*
X56647Y-82140D01*
X56585Y-82077D01*
X56112Y-82077D01*
X56112Y-82085D01*
X56012Y-82085D01*
X56012Y-82077D01*
X56005Y-82077D01*
X56005Y-81977D01*
X56012Y-81977D01*
X56012Y-81505D01*
X55950Y-81442D01*
X55678Y-81442D01*
X55586Y-81480D01*
X55516Y-81551D01*
X55512Y-81559D01*
X55512Y-80259D01*
X55478Y-80087D01*
X55381Y-79941D01*
X54759Y-79319D01*
X54689Y-79272D01*
X58296Y-79272D01*
X58315Y-79318D01*
X58385Y-79388D01*
X58477Y-79427D01*
X58577Y-79427D01*
X59285Y-79427D01*
X59377Y-79389D01*
X59424Y-79342D01*
X59424Y-82144D01*
X59424Y-82144D01*
G37*
G54D29*
X59424Y-82144D02*
X58963Y-82605D01*
X58112Y-82605D01*
X58112Y-82162D01*
X58101Y-81953D01*
X58043Y-81813D01*
X57950Y-81789D01*
X57879Y-81860D01*
X57879Y-81718D01*
X57855Y-81626D01*
X57824Y-81615D01*
X57824Y-80694D01*
X57824Y-80045D01*
X57786Y-79953D01*
X57716Y-79883D01*
X57624Y-79845D01*
X57524Y-79845D01*
X57411Y-79845D01*
X57349Y-79907D01*
X57349Y-80320D01*
X57761Y-80320D01*
X57824Y-80257D01*
X57824Y-80045D01*
X57824Y-80694D01*
X57824Y-80482D01*
X57761Y-80420D01*
X57349Y-80420D01*
X57349Y-80832D01*
X57411Y-80895D01*
X57524Y-80895D01*
X57624Y-80895D01*
X57716Y-80856D01*
X57786Y-80786D01*
X57824Y-80694D01*
X57824Y-81615D01*
X57658Y-81556D01*
X57449Y-81568D01*
X57309Y-81626D01*
X57285Y-81718D01*
X57582Y-82015D01*
X57879Y-81718D01*
X57879Y-81860D01*
X57653Y-82086D01*
X57950Y-82383D01*
X58043Y-82359D01*
X58112Y-82162D01*
X58112Y-82605D01*
X57715Y-82605D01*
X57855Y-82547D01*
X57879Y-82454D01*
X57582Y-82157D01*
X57512Y-82228D01*
X57512Y-82086D01*
X57249Y-81823D01*
X57249Y-80832D01*
X57249Y-80420D01*
X57249Y-80320D01*
X57249Y-79907D01*
X57186Y-79845D01*
X57073Y-79845D01*
X56974Y-79845D01*
X56882Y-79883D01*
X56812Y-79953D01*
X56774Y-80045D01*
X56774Y-80257D01*
X56836Y-80320D01*
X57249Y-80320D01*
X57249Y-80420D01*
X56836Y-80420D01*
X56774Y-80482D01*
X56774Y-80694D01*
X56812Y-80786D01*
X56882Y-80856D01*
X56974Y-80895D01*
X57073Y-80895D01*
X57186Y-80895D01*
X57249Y-80832D01*
X57249Y-81823D01*
X57214Y-81789D01*
X57122Y-81813D01*
X57052Y-82010D01*
X57064Y-82219D01*
X57122Y-82359D01*
X57214Y-82383D01*
X57512Y-82086D01*
X57512Y-82228D01*
X57285Y-82454D01*
X57309Y-82547D01*
X57474Y-82605D01*
X56464Y-82605D01*
X56539Y-82574D01*
X56609Y-82504D01*
X56647Y-82412D01*
X56647Y-82312D01*
X56647Y-81742D01*
X56647Y-81642D01*
X56609Y-81551D01*
X56539Y-81480D01*
X56447Y-81442D01*
X56175Y-81442D01*
X56112Y-81505D01*
X56112Y-81977D01*
X56585Y-81977D01*
X56647Y-81915D01*
X56647Y-81742D01*
X56647Y-82312D01*
X56647Y-82140D01*
X56585Y-82077D01*
X56112Y-82077D01*
X56112Y-82085D01*
X56012Y-82085D01*
X56012Y-82077D01*
X56005Y-82077D01*
X56005Y-81977D01*
X56012Y-81977D01*
X56012Y-81505D01*
X55950Y-81442D01*
X55678Y-81442D01*
X55586Y-81480D01*
X55516Y-81551D01*
X55512Y-81559D01*
X55512Y-80259D01*
X55478Y-80087D01*
X55381Y-79941D01*
X54759Y-79319D01*
X54689Y-79272D01*
X58296Y-79272D01*
X58315Y-79318D01*
X58385Y-79388D01*
X58477Y-79427D01*
X58577Y-79427D01*
X59285Y-79427D01*
X59377Y-79389D01*
X59424Y-79342D01*
X59424Y-82144D01*
G54D10*
G36*
X61644Y-85031D02*
X61608Y-84944D01*
X61316Y-84652D01*
X61072Y-84550D01*
X61072Y-83212D01*
X61072Y-74874D01*
X61037Y-74701D01*
X60940Y-74555D01*
X60113Y-73729D01*
X59967Y-73631D01*
X59795Y-73597D01*
X56271Y-73597D01*
X56325Y-73543D01*
X56364Y-73451D01*
X56364Y-73352D01*
X56364Y-72643D01*
X56326Y-72551D01*
X56255Y-72481D01*
X56209Y-72461D01*
X56209Y-71509D01*
X56281Y-71337D01*
X56281Y-71120D01*
X56198Y-70919D01*
X56045Y-70766D01*
X55845Y-70683D01*
X55628Y-70682D01*
X55427Y-70765D01*
X55274Y-70919D01*
X55191Y-71119D01*
X55190Y-71336D01*
X55273Y-71536D01*
X55309Y-71572D01*
X55309Y-72461D01*
X55264Y-72480D01*
X55193Y-72551D01*
X55155Y-72642D01*
X55155Y-72742D01*
X55155Y-73451D01*
X55193Y-73543D01*
X55263Y-73613D01*
X55316Y-73635D01*
X55247Y-73704D01*
X55155Y-73926D01*
X55155Y-74166D01*
X55170Y-74204D01*
X55114Y-74260D01*
X54562Y-74260D01*
X54500Y-74198D01*
X54278Y-74106D01*
X54037Y-74106D01*
X53815Y-74198D01*
X53645Y-74367D01*
X53553Y-74589D01*
X53553Y-74830D01*
X53644Y-75052D01*
X53802Y-75210D01*
X53752Y-75260D01*
X53416Y-75260D01*
X53083Y-74927D01*
X53083Y-73066D01*
X53049Y-72894D01*
X52952Y-72748D01*
X51877Y-71673D01*
X51731Y-71576D01*
X51559Y-71542D01*
X50650Y-71542D01*
X50650Y-70370D01*
X50616Y-70197D01*
X50518Y-70051D01*
X49932Y-69465D01*
X49786Y-69367D01*
X49614Y-69333D01*
X49181Y-69333D01*
X49235Y-69279D01*
X49254Y-69233D01*
X55656Y-69233D01*
X57742Y-71319D01*
X57742Y-71336D01*
X57824Y-71536D01*
X57978Y-71690D01*
X58178Y-71773D01*
X58395Y-71773D01*
X58595Y-71690D01*
X58749Y-71537D01*
X58832Y-71337D01*
X58832Y-71120D01*
X58749Y-70919D01*
X58596Y-70766D01*
X58396Y-70683D01*
X58378Y-70683D01*
X56160Y-68465D01*
X56014Y-68367D01*
X55842Y-68333D01*
X49254Y-68333D01*
X49235Y-68287D01*
X49165Y-68217D01*
X49073Y-68179D01*
X48974Y-68179D01*
X48265Y-68179D01*
X48173Y-68217D01*
X48103Y-68287D01*
X48064Y-68379D01*
X48064Y-68478D01*
X48064Y-69187D01*
X48102Y-69279D01*
X48156Y-69333D01*
X44969Y-69333D01*
X42575Y-66939D01*
X42575Y-60521D01*
X43001Y-60095D01*
X45679Y-60095D01*
X46032Y-60448D01*
X46032Y-60471D01*
X46016Y-60487D01*
X45982Y-60569D01*
X45948Y-60488D01*
X45794Y-60333D01*
X45592Y-60249D01*
X45373Y-60249D01*
X45171Y-60332D01*
X45016Y-60487D01*
X44932Y-60689D01*
X44932Y-60908D01*
X45015Y-61110D01*
X45154Y-61249D01*
X44882Y-61249D01*
X44790Y-61287D01*
X44720Y-61357D01*
X44682Y-61449D01*
X44682Y-61548D01*
X44682Y-62148D01*
X44720Y-62240D01*
X44790Y-62311D01*
X44882Y-62349D01*
X44981Y-62349D01*
X45581Y-62349D01*
X45673Y-62311D01*
X45744Y-62241D01*
X45782Y-62149D01*
X45782Y-62126D01*
X45782Y-62126D01*
X45782Y-62366D01*
X45816Y-62538D01*
X45914Y-62684D01*
X46276Y-63046D01*
X46422Y-63144D01*
X46594Y-63178D01*
X54803Y-63178D01*
X54975Y-63144D01*
X55121Y-63046D01*
X55570Y-62597D01*
X55667Y-62451D01*
X55701Y-62279D01*
X55701Y-62138D01*
X55717Y-62122D01*
X55751Y-62041D01*
X55785Y-62122D01*
X55801Y-62138D01*
X55801Y-62656D01*
X55418Y-63040D01*
X55320Y-63186D01*
X55286Y-63358D01*
X55286Y-64907D01*
X55274Y-64919D01*
X55191Y-65119D01*
X55190Y-65336D01*
X55273Y-65536D01*
X55426Y-65690D01*
X55627Y-65773D01*
X55844Y-65773D01*
X56044Y-65690D01*
X56057Y-65678D01*
X57966Y-65678D01*
X57978Y-65690D01*
X58178Y-65773D01*
X58395Y-65773D01*
X58595Y-65690D01*
X58608Y-65678D01*
X58797Y-65678D01*
X59679Y-66560D01*
X59679Y-71876D01*
X59218Y-72338D01*
X59037Y-72412D01*
X58889Y-72560D01*
X58809Y-72753D01*
X58809Y-72962D01*
X58889Y-73155D01*
X59036Y-73303D01*
X59229Y-73383D01*
X59438Y-73383D01*
X59631Y-73303D01*
X59779Y-73156D01*
X59854Y-72974D01*
X60448Y-72381D01*
X60545Y-72235D01*
X60579Y-72063D01*
X60579Y-66374D01*
X60545Y-66201D01*
X60448Y-66055D01*
X59552Y-65159D01*
X59552Y-56961D01*
X59438Y-56685D01*
X59227Y-56474D01*
X58951Y-56360D01*
X58653Y-56360D01*
X58377Y-56474D01*
X58166Y-56684D01*
X58052Y-56960D01*
X58051Y-57258D01*
X58070Y-57303D01*
X57802Y-57302D01*
X57431Y-57455D01*
X57147Y-57739D01*
X56994Y-58109D01*
X56993Y-58510D01*
X57146Y-58881D01*
X57430Y-59165D01*
X57800Y-59318D01*
X58201Y-59319D01*
X58572Y-59166D01*
X58856Y-58882D01*
X59009Y-58512D01*
X59010Y-58111D01*
X58906Y-57860D01*
X58950Y-57860D01*
X59226Y-57746D01*
X59437Y-57535D01*
X59551Y-57260D01*
X59552Y-56961D01*
X59552Y-65159D01*
X59302Y-64910D01*
X59156Y-64812D01*
X58984Y-64778D01*
X58608Y-64778D01*
X58596Y-64766D01*
X58396Y-64683D01*
X58179Y-64682D01*
X58056Y-64733D01*
X58056Y-60892D01*
X58045Y-60674D01*
X57983Y-60523D01*
X57887Y-60495D01*
X57817Y-60566D01*
X57817Y-60425D01*
X57789Y-60329D01*
X57583Y-60256D01*
X57365Y-60267D01*
X57214Y-60329D01*
X57186Y-60425D01*
X57501Y-60740D01*
X57817Y-60425D01*
X57817Y-60566D01*
X57572Y-60811D01*
X57887Y-61126D01*
X57983Y-61098D01*
X58056Y-60892D01*
X58056Y-64733D01*
X57978Y-64765D01*
X57966Y-64778D01*
X56186Y-64778D01*
X56186Y-63544D01*
X56570Y-63160D01*
X56570Y-63160D01*
X56635Y-63063D01*
X56667Y-63014D01*
X56667Y-63014D01*
X56701Y-62842D01*
X56701Y-62842D01*
X56701Y-62138D01*
X56717Y-62122D01*
X56751Y-62041D01*
X56785Y-62122D01*
X56940Y-62277D01*
X57142Y-62360D01*
X57360Y-62361D01*
X57563Y-62277D01*
X57717Y-62122D01*
X57801Y-61920D01*
X57802Y-61702D01*
X57718Y-61499D01*
X57576Y-61357D01*
X57638Y-61354D01*
X57789Y-61292D01*
X57817Y-61196D01*
X57501Y-60881D01*
X57186Y-61196D01*
X57205Y-61260D01*
X57143Y-61260D01*
X56951Y-61339D01*
X56951Y-61138D01*
X56967Y-61122D01*
X56999Y-61047D01*
X57020Y-61098D01*
X57116Y-61126D01*
X57431Y-60811D01*
X57116Y-60495D01*
X57020Y-60523D01*
X57000Y-60578D01*
X56968Y-60499D01*
X56951Y-60483D01*
X56951Y-60289D01*
X56917Y-60117D01*
X56917Y-60117D01*
X56885Y-60068D01*
X56820Y-59971D01*
X56820Y-59971D01*
X56306Y-59457D01*
X56160Y-59359D01*
X55988Y-59325D01*
X54510Y-59325D01*
X54510Y-58111D01*
X54357Y-57740D01*
X54073Y-57456D01*
X53703Y-57303D01*
X53434Y-57302D01*
X53451Y-57260D01*
X53452Y-56961D01*
X53338Y-56685D01*
X53127Y-56474D01*
X52851Y-56360D01*
X52553Y-56360D01*
X52277Y-56474D01*
X52066Y-56684D01*
X51952Y-56960D01*
X51951Y-57258D01*
X52065Y-57534D01*
X52276Y-57745D01*
X52552Y-57860D01*
X52597Y-57860D01*
X52494Y-58109D01*
X52493Y-58510D01*
X52646Y-58881D01*
X52930Y-59165D01*
X53300Y-59318D01*
X53701Y-59319D01*
X54072Y-59166D01*
X54356Y-58882D01*
X54509Y-58512D01*
X54510Y-58111D01*
X54510Y-59325D01*
X51970Y-59325D01*
X51970Y-58689D01*
X51959Y-58481D01*
X51901Y-58341D01*
X51808Y-58317D01*
X51738Y-58387D01*
X51738Y-58246D01*
X51713Y-58153D01*
X51516Y-58084D01*
X51308Y-58095D01*
X51168Y-58153D01*
X51143Y-58246D01*
X51441Y-58543D01*
X51738Y-58246D01*
X51738Y-58387D01*
X51511Y-58614D01*
X51808Y-58911D01*
X51901Y-58886D01*
X51970Y-58689D01*
X51970Y-59325D01*
X51738Y-59325D01*
X51738Y-58981D01*
X51441Y-58684D01*
X51370Y-58755D01*
X51370Y-58614D01*
X51073Y-58317D01*
X50980Y-58341D01*
X50911Y-58538D01*
X50922Y-58746D01*
X50980Y-58886D01*
X51073Y-58911D01*
X51370Y-58614D01*
X51370Y-58755D01*
X51143Y-58981D01*
X51168Y-59074D01*
X51365Y-59144D01*
X51573Y-59132D01*
X51713Y-59074D01*
X51738Y-58981D01*
X51738Y-59325D01*
X50532Y-59325D01*
X50532Y-56949D01*
X50418Y-56674D01*
X50207Y-56462D01*
X49932Y-56348D01*
X49633Y-56348D01*
X49357Y-56462D01*
X49146Y-56673D01*
X49032Y-56948D01*
X49032Y-57246D01*
X49050Y-57291D01*
X48782Y-57291D01*
X48412Y-57444D01*
X48128Y-57727D01*
X47974Y-58097D01*
X47974Y-58498D01*
X48127Y-58869D01*
X48410Y-59153D01*
X48780Y-59307D01*
X49181Y-59307D01*
X49552Y-59154D01*
X49836Y-58870D01*
X49990Y-58500D01*
X49990Y-58099D01*
X49886Y-57848D01*
X49930Y-57848D01*
X50206Y-57734D01*
X50417Y-57523D01*
X50532Y-57248D01*
X50532Y-56949D01*
X50532Y-59325D01*
X47779Y-59325D01*
X47607Y-59359D01*
X47461Y-59457D01*
X47164Y-59754D01*
X47066Y-59900D01*
X47032Y-60072D01*
X47032Y-60471D01*
X47016Y-60487D01*
X46982Y-60569D01*
X46948Y-60488D01*
X46932Y-60471D01*
X46932Y-60261D01*
X46898Y-60089D01*
X46800Y-59943D01*
X46184Y-59327D01*
X46038Y-59229D01*
X45866Y-59195D01*
X44952Y-59195D01*
X45052Y-59154D01*
X45336Y-58870D01*
X45490Y-58500D01*
X45490Y-58099D01*
X45337Y-57728D01*
X45054Y-57445D01*
X44683Y-57291D01*
X44414Y-57291D01*
X44432Y-57248D01*
X44432Y-56949D01*
X44318Y-56674D01*
X44107Y-56462D01*
X43832Y-56348D01*
X43533Y-56348D01*
X43257Y-56462D01*
X43046Y-56673D01*
X42932Y-56948D01*
X42932Y-57246D01*
X43046Y-57522D01*
X43256Y-57733D01*
X43532Y-57848D01*
X43578Y-57848D01*
X43474Y-58097D01*
X43474Y-58498D01*
X43627Y-58869D01*
X43910Y-59153D01*
X44012Y-59195D01*
X42814Y-59195D01*
X42642Y-59229D01*
X42594Y-59262D01*
X42496Y-59327D01*
X41807Y-60016D01*
X41710Y-60162D01*
X41675Y-60334D01*
X41675Y-67125D01*
X41710Y-67298D01*
X41807Y-67444D01*
X44465Y-70101D01*
X44611Y-70199D01*
X44783Y-70233D01*
X48264Y-70233D01*
X48326Y-70295D01*
X48548Y-70387D01*
X48788Y-70387D01*
X49011Y-70296D01*
X49073Y-70233D01*
X49427Y-70233D01*
X49750Y-70556D01*
X49750Y-71542D01*
X46539Y-71542D01*
X46367Y-71576D01*
X46318Y-71608D01*
X46221Y-71673D01*
X44746Y-73148D01*
X44746Y-71884D01*
X44663Y-71683D01*
X44510Y-71530D01*
X44309Y-71446D01*
X44092Y-71446D01*
X43892Y-71529D01*
X43879Y-71542D01*
X42898Y-71542D01*
X42952Y-71487D01*
X42990Y-71395D01*
X42990Y-70588D01*
X42952Y-70496D01*
X42881Y-70425D01*
X42790Y-70387D01*
X42690Y-70387D01*
X42498Y-70387D01*
X42435Y-70450D01*
X42435Y-70942D01*
X42927Y-70942D01*
X42990Y-70879D01*
X42990Y-70588D01*
X42990Y-71395D01*
X42990Y-71104D01*
X42927Y-71042D01*
X42435Y-71042D01*
X42435Y-71050D01*
X42335Y-71050D01*
X42335Y-71042D01*
X42335Y-70942D01*
X42335Y-70450D01*
X42273Y-70387D01*
X42080Y-70387D01*
X41981Y-70387D01*
X41889Y-70425D01*
X41819Y-70496D01*
X41781Y-70588D01*
X41781Y-70879D01*
X41843Y-70942D01*
X42335Y-70942D01*
X42335Y-71042D01*
X41843Y-71042D01*
X41781Y-71104D01*
X41781Y-71395D01*
X41819Y-71487D01*
X41889Y-71558D01*
X41942Y-71580D01*
X41873Y-71649D01*
X41781Y-71871D01*
X41781Y-72111D01*
X41873Y-72334D01*
X42042Y-72504D01*
X42265Y-72596D01*
X42505Y-72596D01*
X42727Y-72504D01*
X42790Y-72442D01*
X43879Y-72442D01*
X43891Y-72454D01*
X44091Y-72537D01*
X44308Y-72537D01*
X44509Y-72454D01*
X44662Y-72301D01*
X44745Y-72101D01*
X44746Y-71884D01*
X44746Y-73148D01*
X44051Y-73843D01*
X43954Y-73989D01*
X43920Y-74161D01*
X43920Y-75704D01*
X43908Y-75716D01*
X43824Y-75916D01*
X43824Y-76133D01*
X43907Y-76334D01*
X44060Y-76487D01*
X44146Y-76522D01*
X44085Y-76548D01*
X44058Y-76643D01*
X44370Y-76954D01*
X44681Y-76643D01*
X44655Y-76548D01*
X44589Y-76524D01*
X44678Y-76488D01*
X44691Y-76475D01*
X46185Y-76475D01*
X46216Y-76507D01*
X46308Y-76545D01*
X46407Y-76545D01*
X47116Y-76545D01*
X47208Y-76507D01*
X47278Y-76437D01*
X47316Y-76345D01*
X47316Y-76245D01*
X47316Y-75551D01*
X47388Y-75623D01*
X47388Y-79633D01*
X47422Y-79806D01*
X47520Y-79952D01*
X48256Y-80688D01*
X48402Y-80785D01*
X48574Y-80820D01*
X53041Y-80820D01*
X53612Y-81391D01*
X53612Y-81650D01*
X53567Y-81695D01*
X53563Y-81706D01*
X53558Y-81696D01*
X53394Y-81532D01*
X53179Y-81443D01*
X52947Y-81442D01*
X52732Y-81531D01*
X52567Y-81695D01*
X52563Y-81706D01*
X52558Y-81696D01*
X52394Y-81532D01*
X52179Y-81443D01*
X51947Y-81442D01*
X51732Y-81531D01*
X51686Y-81577D01*
X50539Y-81577D01*
X50367Y-81611D01*
X50221Y-81709D01*
X50221Y-81709D01*
X50221Y-81709D01*
X49418Y-82512D01*
X49418Y-81801D01*
X49407Y-81584D01*
X49345Y-81435D01*
X49250Y-81408D01*
X49179Y-81479D01*
X49179Y-81337D01*
X49153Y-81243D01*
X48948Y-81170D01*
X48732Y-81181D01*
X48583Y-81243D01*
X48556Y-81337D01*
X48868Y-81649D01*
X49179Y-81337D01*
X49179Y-81479D01*
X48938Y-81720D01*
X49250Y-82032D01*
X49345Y-82005D01*
X49418Y-81801D01*
X49418Y-82512D01*
X49179Y-82750D01*
X49179Y-82102D01*
X48868Y-81791D01*
X48797Y-81861D01*
X48797Y-81720D01*
X48485Y-81408D01*
X48390Y-81435D01*
X48318Y-81639D01*
X48329Y-81856D01*
X48390Y-82005D01*
X48485Y-82032D01*
X48797Y-81720D01*
X48797Y-81861D01*
X48556Y-82102D01*
X48583Y-82197D01*
X48787Y-82270D01*
X49004Y-82259D01*
X49153Y-82197D01*
X49179Y-82102D01*
X49179Y-82750D01*
X48384Y-83546D01*
X47463Y-83546D01*
X47463Y-83076D01*
X47452Y-82860D01*
X47390Y-82711D01*
X47295Y-82684D01*
X47225Y-82754D01*
X47225Y-82613D01*
X47198Y-82518D01*
X46994Y-82445D01*
X46777Y-82456D01*
X46628Y-82518D01*
X46601Y-82613D01*
X46913Y-82925D01*
X47225Y-82613D01*
X47225Y-82754D01*
X46984Y-82996D01*
X47295Y-83307D01*
X47390Y-83281D01*
X47463Y-83076D01*
X47463Y-83546D01*
X47234Y-83546D01*
X47222Y-83534D01*
X47137Y-83498D01*
X47198Y-83473D01*
X47225Y-83378D01*
X46913Y-83066D01*
X46842Y-83137D01*
X46842Y-82996D01*
X46530Y-82684D01*
X46436Y-82711D01*
X46363Y-82915D01*
X46374Y-83132D01*
X46436Y-83281D01*
X46530Y-83307D01*
X46842Y-82996D01*
X46842Y-83137D01*
X46601Y-83378D01*
X46628Y-83473D01*
X46693Y-83496D01*
X46604Y-83533D01*
X46592Y-83546D01*
X45132Y-83546D01*
X45132Y-83076D01*
X45121Y-82860D01*
X45060Y-82711D01*
X44965Y-82684D01*
X44920Y-82729D01*
X44920Y-77106D01*
X44909Y-76889D01*
X44847Y-76740D01*
X44752Y-76713D01*
X44440Y-77025D01*
X44752Y-77337D01*
X44847Y-77310D01*
X44920Y-77106D01*
X44920Y-82729D01*
X44894Y-82754D01*
X44894Y-82613D01*
X44867Y-82518D01*
X44681Y-82452D01*
X44681Y-77408D01*
X44370Y-77096D01*
X44299Y-77167D01*
X44299Y-77025D01*
X43987Y-76713D01*
X43892Y-76740D01*
X43820Y-76944D01*
X43831Y-77161D01*
X43892Y-77310D01*
X43987Y-77337D01*
X44299Y-77025D01*
X44299Y-77167D01*
X44058Y-77408D01*
X44085Y-77502D01*
X44289Y-77575D01*
X44506Y-77564D01*
X44655Y-77502D01*
X44681Y-77408D01*
X44681Y-82452D01*
X44663Y-82445D01*
X44446Y-82456D01*
X44297Y-82518D01*
X44270Y-82613D01*
X44582Y-82925D01*
X44894Y-82613D01*
X44894Y-82754D01*
X44653Y-82996D01*
X44965Y-83307D01*
X45060Y-83281D01*
X45132Y-83076D01*
X45132Y-83546D01*
X44903Y-83546D01*
X44891Y-83534D01*
X44806Y-83498D01*
X44867Y-83473D01*
X44894Y-83378D01*
X44582Y-83066D01*
X44511Y-83137D01*
X44511Y-82996D01*
X44200Y-82684D01*
X44105Y-82711D01*
X44032Y-82915D01*
X44043Y-83132D01*
X44105Y-83281D01*
X44200Y-83307D01*
X44511Y-82996D01*
X44511Y-83137D01*
X44270Y-83378D01*
X44297Y-83473D01*
X44363Y-83496D01*
X44274Y-83533D01*
X44120Y-83686D01*
X44037Y-83887D01*
X44037Y-84104D01*
X44120Y-84304D01*
X44273Y-84458D01*
X44473Y-84541D01*
X44690Y-84541D01*
X44891Y-84458D01*
X44903Y-84446D01*
X46592Y-84446D01*
X46604Y-84458D01*
X46804Y-84541D01*
X47021Y-84541D01*
X47221Y-84458D01*
X47234Y-84446D01*
X48570Y-84446D01*
X48743Y-84411D01*
X48889Y-84314D01*
X50725Y-82477D01*
X51612Y-82477D01*
X51612Y-82905D01*
X51647Y-83077D01*
X51744Y-83223D01*
X52555Y-84034D01*
X52555Y-84034D01*
X52701Y-84132D01*
X52701Y-84132D01*
X52874Y-84166D01*
X52874Y-84166D01*
X57057Y-84166D01*
X57057Y-84336D01*
X57120Y-84398D01*
X57532Y-84398D01*
X57532Y-84390D01*
X57632Y-84390D01*
X57632Y-84398D01*
X58045Y-84398D01*
X58107Y-84336D01*
X58107Y-84166D01*
X60118Y-84166D01*
X60290Y-84132D01*
X60436Y-84034D01*
X60940Y-83530D01*
X61037Y-83384D01*
X61072Y-83212D01*
X61072Y-84550D01*
X60935Y-84494D01*
X60522Y-84493D01*
X60141Y-84651D01*
X59849Y-84943D01*
X59691Y-85324D01*
X59690Y-85736D01*
X59848Y-86118D01*
X60053Y-86324D01*
X58107Y-86324D01*
X58107Y-84773D01*
X58107Y-84561D01*
X58045Y-84498D01*
X57632Y-84498D01*
X57632Y-84911D01*
X57695Y-84973D01*
X57808Y-84973D01*
X57907Y-84973D01*
X57999Y-84935D01*
X58069Y-84865D01*
X58107Y-84773D01*
X58107Y-86324D01*
X57532Y-86324D01*
X57532Y-84911D01*
X57532Y-84498D01*
X57120Y-84498D01*
X57057Y-84561D01*
X57057Y-84773D01*
X57095Y-84865D01*
X57165Y-84935D01*
X57257Y-84973D01*
X57357Y-84973D01*
X57470Y-84973D01*
X57532Y-84911D01*
X57532Y-86324D01*
X41396Y-86324D01*
X41396Y-84848D01*
X41386Y-84592D01*
X41306Y-84399D01*
X41201Y-84361D01*
X41131Y-84431D01*
X41131Y-84290D01*
X41092Y-84185D01*
X40852Y-84096D01*
X40596Y-84105D01*
X40403Y-84185D01*
X40364Y-84290D01*
X40748Y-84673D01*
X41131Y-84290D01*
X41131Y-84431D01*
X40818Y-84744D01*
X41201Y-85127D01*
X41306Y-85088D01*
X41396Y-84848D01*
X41396Y-86324D01*
X41131Y-86324D01*
X41131Y-85197D01*
X40748Y-84814D01*
X40677Y-84885D01*
X40677Y-84744D01*
X40294Y-84361D01*
X40280Y-84366D01*
X40280Y-81360D01*
X40269Y-81143D01*
X40207Y-80994D01*
X40112Y-80968D01*
X40066Y-81014D01*
X40066Y-65118D01*
X40066Y-63129D01*
X40031Y-62957D01*
X39934Y-62811D01*
X37286Y-60164D01*
X37278Y-60158D01*
X37278Y-58235D01*
X37126Y-57867D01*
X36845Y-57585D01*
X36478Y-57433D01*
X36080Y-57432D01*
X35712Y-57584D01*
X35431Y-57865D01*
X35278Y-58233D01*
X35278Y-58631D01*
X35430Y-58998D01*
X35711Y-59280D01*
X36078Y-59432D01*
X36476Y-59433D01*
X36844Y-59281D01*
X37125Y-59000D01*
X37278Y-58632D01*
X37278Y-58235D01*
X37278Y-60158D01*
X37140Y-60066D01*
X36968Y-60032D01*
X35984Y-60032D01*
X34076Y-60032D01*
X34076Y-59537D01*
X34066Y-59281D01*
X33987Y-59088D01*
X33882Y-59050D01*
X33499Y-59433D01*
X33882Y-59816D01*
X33987Y-59777D01*
X34076Y-59537D01*
X34076Y-60032D01*
X33675Y-60032D01*
X33772Y-59991D01*
X33811Y-59886D01*
X33428Y-59503D01*
X33422Y-59509D01*
X33352Y-59438D01*
X33357Y-59433D01*
X33352Y-59427D01*
X33422Y-59356D01*
X33428Y-59362D01*
X33811Y-58979D01*
X33772Y-58874D01*
X33532Y-58785D01*
X33427Y-58788D01*
X33521Y-58561D01*
X33522Y-58305D01*
X33424Y-58068D01*
X33243Y-57887D01*
X33006Y-57789D01*
X32750Y-57789D01*
X32514Y-57887D01*
X32332Y-58067D01*
X32328Y-58078D01*
X32324Y-58068D01*
X32143Y-57887D01*
X31906Y-57789D01*
X31650Y-57789D01*
X31414Y-57887D01*
X31253Y-58047D01*
X31093Y-57887D01*
X30856Y-57789D01*
X30600Y-57789D01*
X30364Y-57887D01*
X30182Y-58067D01*
X30178Y-58078D01*
X30174Y-58068D01*
X29993Y-57887D01*
X29756Y-57789D01*
X29500Y-57789D01*
X29264Y-57887D01*
X29082Y-58067D01*
X28984Y-58304D01*
X28984Y-58560D01*
X29079Y-58789D01*
X28635Y-58789D01*
X28543Y-58827D01*
X28472Y-58897D01*
X28434Y-58989D01*
X28434Y-59088D01*
X28434Y-59876D01*
X28472Y-59968D01*
X28542Y-60038D01*
X28620Y-60070D01*
X28620Y-63627D01*
X27415Y-64832D01*
X27415Y-64757D01*
X27415Y-63970D01*
X27377Y-63878D01*
X27307Y-63807D01*
X27278Y-63795D01*
X27278Y-58235D01*
X27126Y-57867D01*
X26845Y-57585D01*
X26478Y-57433D01*
X26080Y-57432D01*
X25712Y-57584D01*
X25431Y-57865D01*
X25278Y-58233D01*
X25278Y-58631D01*
X25430Y-58998D01*
X25711Y-59280D01*
X26078Y-59432D01*
X26476Y-59433D01*
X26844Y-59281D01*
X27125Y-59000D01*
X27278Y-58632D01*
X27278Y-58235D01*
X27278Y-63795D01*
X27215Y-63769D01*
X27115Y-63769D01*
X26328Y-63769D01*
X26236Y-63807D01*
X26166Y-63877D01*
X26130Y-63963D01*
X25704Y-63963D01*
X25532Y-63997D01*
X25386Y-64095D01*
X24563Y-64918D01*
X24466Y-65064D01*
X24445Y-65169D01*
X24419Y-65194D01*
X24336Y-65394D01*
X24336Y-65611D01*
X24419Y-65812D01*
X24572Y-65965D01*
X24772Y-66049D01*
X24989Y-66049D01*
X25190Y-65966D01*
X25343Y-65813D01*
X25427Y-65612D01*
X25427Y-65395D01*
X25407Y-65347D01*
X25891Y-64863D01*
X26130Y-64863D01*
X26165Y-64948D01*
X26236Y-65018D01*
X26249Y-65024D01*
X26226Y-65048D01*
X26128Y-65284D01*
X26127Y-65540D01*
X26225Y-65777D01*
X26361Y-65913D01*
X26226Y-66048D01*
X26128Y-66284D01*
X26127Y-66540D01*
X26225Y-66777D01*
X26406Y-66958D01*
X26643Y-67056D01*
X26899Y-67057D01*
X27135Y-66959D01*
X27231Y-66863D01*
X30248Y-66863D01*
X30343Y-66958D01*
X30580Y-67056D01*
X30836Y-67057D01*
X31072Y-66959D01*
X31169Y-66863D01*
X34185Y-66863D01*
X34280Y-66958D01*
X34517Y-67056D01*
X34773Y-67057D01*
X35009Y-66959D01*
X35106Y-66863D01*
X38122Y-66863D01*
X38132Y-66873D01*
X38132Y-75892D01*
X38093Y-75876D01*
X37993Y-75876D01*
X37285Y-75876D01*
X37193Y-75913D01*
X37157Y-75950D01*
X35154Y-75950D01*
X35092Y-75887D01*
X34870Y-75795D01*
X34630Y-75795D01*
X34408Y-75887D01*
X34249Y-76045D01*
X34092Y-75887D01*
X33870Y-75795D01*
X33630Y-75795D01*
X33408Y-75887D01*
X33249Y-76045D01*
X33092Y-75887D01*
X32870Y-75795D01*
X32630Y-75795D01*
X32408Y-75887D01*
X32249Y-76045D01*
X32092Y-75887D01*
X31870Y-75795D01*
X31630Y-75795D01*
X31408Y-75887D01*
X31249Y-76045D01*
X31200Y-75995D01*
X31200Y-75066D01*
X34312Y-71953D01*
X36292Y-71953D01*
X36304Y-71965D01*
X36505Y-72049D01*
X36722Y-72049D01*
X36922Y-71966D01*
X37076Y-71813D01*
X37159Y-71612D01*
X37159Y-71395D01*
X37076Y-71195D01*
X36923Y-71041D01*
X36723Y-70958D01*
X36506Y-70958D01*
X36305Y-71041D01*
X36293Y-71053D01*
X34125Y-71053D01*
X33953Y-71088D01*
X33807Y-71185D01*
X30431Y-74561D01*
X30334Y-74707D01*
X30300Y-74879D01*
X30300Y-75995D01*
X30249Y-76045D01*
X30200Y-75995D01*
X30200Y-74617D01*
X32768Y-72049D01*
X32785Y-72049D01*
X32985Y-71966D01*
X33139Y-71813D01*
X33222Y-71612D01*
X33222Y-71395D01*
X33139Y-71195D01*
X32986Y-71041D01*
X32786Y-70958D01*
X32569Y-70958D01*
X32368Y-71041D01*
X32215Y-71194D01*
X32131Y-71394D01*
X32131Y-71412D01*
X29431Y-74112D01*
X29334Y-74258D01*
X29300Y-74431D01*
X29300Y-75995D01*
X29249Y-76045D01*
X29190Y-75985D01*
X29190Y-71825D01*
X29202Y-71813D01*
X29285Y-71612D01*
X29285Y-71395D01*
X29202Y-71195D01*
X29049Y-71041D01*
X28849Y-70958D01*
X28632Y-70958D01*
X28431Y-71041D01*
X28278Y-71194D01*
X28194Y-71394D01*
X28194Y-71611D01*
X28277Y-71812D01*
X28290Y-71824D01*
X28290Y-76005D01*
X28249Y-76045D01*
X28092Y-75887D01*
X27870Y-75795D01*
X27782Y-75795D01*
X25331Y-73345D01*
X25331Y-71825D01*
X25343Y-71813D01*
X25427Y-71612D01*
X25427Y-71395D01*
X25344Y-71195D01*
X25191Y-71041D01*
X24990Y-70958D01*
X24773Y-70958D01*
X24573Y-71041D01*
X24419Y-71194D01*
X24336Y-71394D01*
X24336Y-71611D01*
X24419Y-71812D01*
X24431Y-71824D01*
X24431Y-73531D01*
X24466Y-73704D01*
X24563Y-73850D01*
X27145Y-76432D01*
X27145Y-76519D01*
X27237Y-76741D01*
X27407Y-76912D01*
X27629Y-77004D01*
X27869Y-77004D01*
X28091Y-76912D01*
X28250Y-76754D01*
X28407Y-76912D01*
X28629Y-77004D01*
X28869Y-77004D01*
X29091Y-76912D01*
X29250Y-76754D01*
X29407Y-76912D01*
X29629Y-77004D01*
X29869Y-77004D01*
X30091Y-76912D01*
X30250Y-76754D01*
X30407Y-76912D01*
X30629Y-77004D01*
X30869Y-77004D01*
X31091Y-76912D01*
X31250Y-76754D01*
X31407Y-76912D01*
X31629Y-77004D01*
X31869Y-77004D01*
X32091Y-76912D01*
X32250Y-76754D01*
X32407Y-76912D01*
X32629Y-77004D01*
X32869Y-77004D01*
X33091Y-76912D01*
X33250Y-76754D01*
X33407Y-76912D01*
X33629Y-77004D01*
X33869Y-77004D01*
X34091Y-76912D01*
X34250Y-76754D01*
X34407Y-76912D01*
X34629Y-77004D01*
X34869Y-77004D01*
X35091Y-76912D01*
X35154Y-76850D01*
X37084Y-76850D01*
X37084Y-76884D01*
X37122Y-76976D01*
X37192Y-77046D01*
X37284Y-77084D01*
X37384Y-77084D01*
X38092Y-77084D01*
X38184Y-77046D01*
X38255Y-76976D01*
X38277Y-76923D01*
X38280Y-76926D01*
X38280Y-80958D01*
X38268Y-80970D01*
X38184Y-81171D01*
X38184Y-81387D01*
X38267Y-81588D01*
X38329Y-81650D01*
X38329Y-84283D01*
X38234Y-84378D01*
X38135Y-84615D01*
X38135Y-84871D01*
X38233Y-85108D01*
X38414Y-85289D01*
X38650Y-85387D01*
X38907Y-85387D01*
X39143Y-85290D01*
X39324Y-85109D01*
X39423Y-84872D01*
X39423Y-84616D01*
X39325Y-84379D01*
X39229Y-84283D01*
X39229Y-81509D01*
X39252Y-81565D01*
X39347Y-81591D01*
X39659Y-81280D01*
X39347Y-80968D01*
X39252Y-80994D01*
X39229Y-81060D01*
X39192Y-80971D01*
X39180Y-80958D01*
X39180Y-76844D01*
X39201Y-76823D01*
X39293Y-76601D01*
X39293Y-76360D01*
X39201Y-76138D01*
X39032Y-75969D01*
X39032Y-66873D01*
X39128Y-66778D01*
X39226Y-66541D01*
X39226Y-66285D01*
X39128Y-66049D01*
X38993Y-65913D01*
X39043Y-65863D01*
X39320Y-65863D01*
X39493Y-65829D01*
X39639Y-65731D01*
X39934Y-65436D01*
X40031Y-65290D01*
X40066Y-65118D01*
X40066Y-81014D01*
X40041Y-81038D01*
X40041Y-80897D01*
X40015Y-80802D01*
X39810Y-80729D01*
X39593Y-80740D01*
X39444Y-80802D01*
X39418Y-80897D01*
X39730Y-81209D01*
X40041Y-80897D01*
X40041Y-81038D01*
X39800Y-81280D01*
X40112Y-81591D01*
X40207Y-81565D01*
X40280Y-81360D01*
X40280Y-84366D01*
X40189Y-84399D01*
X40100Y-84639D01*
X40109Y-84895D01*
X40189Y-85088D01*
X40294Y-85127D01*
X40677Y-84744D01*
X40677Y-84885D01*
X40364Y-85197D01*
X40403Y-85302D01*
X40643Y-85392D01*
X40899Y-85382D01*
X41092Y-85302D01*
X41131Y-85197D01*
X41131Y-86324D01*
X40041Y-86324D01*
X40041Y-81662D01*
X39730Y-81350D01*
X39418Y-81662D01*
X39444Y-81757D01*
X39649Y-81830D01*
X39866Y-81819D01*
X40015Y-81757D01*
X40041Y-81662D01*
X40041Y-86324D01*
X35358Y-86324D01*
X35358Y-79494D01*
X35348Y-79254D01*
X35276Y-79079D01*
X35175Y-79045D01*
X35104Y-79116D01*
X35104Y-78974D01*
X35070Y-78873D01*
X34844Y-78791D01*
X34604Y-78801D01*
X34429Y-78873D01*
X34395Y-78974D01*
X34750Y-79329D01*
X35104Y-78974D01*
X35104Y-79116D01*
X34820Y-79400D01*
X35175Y-79754D01*
X35276Y-79720D01*
X35358Y-79494D01*
X35358Y-86324D01*
X35104Y-86324D01*
X35104Y-79825D01*
X34750Y-79470D01*
X34679Y-79541D01*
X34679Y-79400D01*
X34324Y-79045D01*
X34265Y-79065D01*
X34262Y-79058D01*
X34092Y-78887D01*
X33870Y-78795D01*
X33630Y-78795D01*
X33408Y-78887D01*
X33249Y-79045D01*
X33092Y-78887D01*
X32870Y-78795D01*
X32630Y-78795D01*
X32408Y-78887D01*
X32249Y-79045D01*
X32092Y-78887D01*
X31870Y-78795D01*
X31630Y-78795D01*
X31408Y-78887D01*
X31249Y-79045D01*
X31092Y-78887D01*
X30870Y-78795D01*
X30630Y-78795D01*
X30408Y-78887D01*
X30249Y-79045D01*
X30092Y-78887D01*
X29870Y-78795D01*
X29630Y-78795D01*
X29408Y-78887D01*
X29249Y-79045D01*
X29092Y-78887D01*
X28870Y-78795D01*
X28630Y-78795D01*
X28408Y-78887D01*
X28338Y-78957D01*
X28316Y-78904D01*
X28246Y-78833D01*
X28154Y-78795D01*
X28054Y-78795D01*
X27346Y-78795D01*
X27254Y-78833D01*
X27183Y-78903D01*
X27145Y-78995D01*
X27145Y-79095D01*
X27145Y-79803D01*
X27183Y-79895D01*
X27253Y-79966D01*
X27282Y-79977D01*
X27282Y-84690D01*
X27253Y-84718D01*
X27167Y-84926D01*
X27167Y-85151D01*
X27253Y-85358D01*
X27411Y-85518D01*
X27619Y-85604D01*
X27844Y-85604D01*
X28051Y-85518D01*
X28210Y-85359D01*
X28232Y-85308D01*
X28253Y-85358D01*
X28411Y-85518D01*
X28619Y-85604D01*
X28844Y-85604D01*
X29051Y-85518D01*
X29210Y-85359D01*
X29232Y-85308D01*
X29253Y-85358D01*
X29411Y-85518D01*
X29619Y-85604D01*
X29844Y-85604D01*
X30051Y-85518D01*
X30167Y-85403D01*
X30167Y-85403D01*
X30205Y-85495D01*
X30275Y-85566D01*
X30367Y-85604D01*
X30466Y-85604D01*
X31096Y-85604D01*
X31188Y-85566D01*
X31259Y-85496D01*
X31297Y-85404D01*
X31297Y-85304D01*
X31297Y-84674D01*
X31259Y-84582D01*
X31200Y-84523D01*
X31200Y-79804D01*
X31250Y-79754D01*
X31407Y-79912D01*
X31629Y-80004D01*
X31869Y-80004D01*
X32091Y-79912D01*
X32250Y-79754D01*
X32407Y-79912D01*
X32629Y-80004D01*
X32869Y-80004D01*
X33091Y-79912D01*
X33250Y-79754D01*
X33407Y-79912D01*
X33629Y-80004D01*
X33869Y-80004D01*
X34091Y-79912D01*
X34262Y-79742D01*
X34265Y-79734D01*
X34324Y-79754D01*
X34679Y-79400D01*
X34679Y-79541D01*
X34395Y-79825D01*
X34429Y-79926D01*
X34655Y-80008D01*
X34895Y-79998D01*
X35070Y-79926D01*
X35104Y-79825D01*
X35104Y-86324D01*
X24296Y-86324D01*
X24501Y-86119D01*
X24659Y-85738D01*
X24659Y-85326D01*
X24502Y-84944D01*
X24210Y-84652D01*
X23829Y-84494D01*
X23416Y-84493D01*
X23035Y-84651D01*
X22809Y-84876D01*
X22809Y-57900D01*
X22809Y-56855D01*
X23033Y-57079D01*
X23414Y-57238D01*
X23827Y-57238D01*
X24208Y-57080D01*
X24501Y-56789D01*
X24659Y-56408D01*
X24659Y-55995D01*
X24502Y-55613D01*
X24258Y-55369D01*
X60092Y-55369D01*
X59849Y-55612D01*
X59691Y-55993D01*
X59690Y-56406D01*
X59848Y-56787D01*
X60139Y-57079D01*
X60521Y-57238D01*
X60933Y-57238D01*
X61315Y-57080D01*
X61607Y-56789D01*
X61644Y-56700D01*
X61644Y-85031D01*
X61644Y-85031D01*
G37*
G54D29*
X61644Y-85031D02*
X61608Y-84944D01*
X61316Y-84652D01*
X61072Y-84550D01*
X61072Y-83212D01*
X61072Y-74874D01*
X61037Y-74701D01*
X60940Y-74555D01*
X60113Y-73729D01*
X59967Y-73631D01*
X59795Y-73597D01*
X56271Y-73597D01*
X56325Y-73543D01*
X56364Y-73451D01*
X56364Y-73352D01*
X56364Y-72643D01*
X56326Y-72551D01*
X56255Y-72481D01*
X56209Y-72461D01*
X56209Y-71509D01*
X56281Y-71337D01*
X56281Y-71120D01*
X56198Y-70919D01*
X56045Y-70766D01*
X55845Y-70683D01*
X55628Y-70682D01*
X55427Y-70765D01*
X55274Y-70919D01*
X55191Y-71119D01*
X55190Y-71336D01*
X55273Y-71536D01*
X55309Y-71572D01*
X55309Y-72461D01*
X55264Y-72480D01*
X55193Y-72551D01*
X55155Y-72642D01*
X55155Y-72742D01*
X55155Y-73451D01*
X55193Y-73543D01*
X55263Y-73613D01*
X55316Y-73635D01*
X55247Y-73704D01*
X55155Y-73926D01*
X55155Y-74166D01*
X55170Y-74204D01*
X55114Y-74260D01*
X54562Y-74260D01*
X54500Y-74198D01*
X54278Y-74106D01*
X54037Y-74106D01*
X53815Y-74198D01*
X53645Y-74367D01*
X53553Y-74589D01*
X53553Y-74830D01*
X53644Y-75052D01*
X53802Y-75210D01*
X53752Y-75260D01*
X53416Y-75260D01*
X53083Y-74927D01*
X53083Y-73066D01*
X53049Y-72894D01*
X52952Y-72748D01*
X51877Y-71673D01*
X51731Y-71576D01*
X51559Y-71542D01*
X50650Y-71542D01*
X50650Y-70370D01*
X50616Y-70197D01*
X50518Y-70051D01*
X49932Y-69465D01*
X49786Y-69367D01*
X49614Y-69333D01*
X49181Y-69333D01*
X49235Y-69279D01*
X49254Y-69233D01*
X55656Y-69233D01*
X57742Y-71319D01*
X57742Y-71336D01*
X57824Y-71536D01*
X57978Y-71690D01*
X58178Y-71773D01*
X58395Y-71773D01*
X58595Y-71690D01*
X58749Y-71537D01*
X58832Y-71337D01*
X58832Y-71120D01*
X58749Y-70919D01*
X58596Y-70766D01*
X58396Y-70683D01*
X58378Y-70683D01*
X56160Y-68465D01*
X56014Y-68367D01*
X55842Y-68333D01*
X49254Y-68333D01*
X49235Y-68287D01*
X49165Y-68217D01*
X49073Y-68179D01*
X48974Y-68179D01*
X48265Y-68179D01*
X48173Y-68217D01*
X48103Y-68287D01*
X48064Y-68379D01*
X48064Y-68478D01*
X48064Y-69187D01*
X48102Y-69279D01*
X48156Y-69333D01*
X44969Y-69333D01*
X42575Y-66939D01*
X42575Y-60521D01*
X43001Y-60095D01*
X45679Y-60095D01*
X46032Y-60448D01*
X46032Y-60471D01*
X46016Y-60487D01*
X45982Y-60569D01*
X45948Y-60488D01*
X45794Y-60333D01*
X45592Y-60249D01*
X45373Y-60249D01*
X45171Y-60332D01*
X45016Y-60487D01*
X44932Y-60689D01*
X44932Y-60908D01*
X45015Y-61110D01*
X45154Y-61249D01*
X44882Y-61249D01*
X44790Y-61287D01*
X44720Y-61357D01*
X44682Y-61449D01*
X44682Y-61548D01*
X44682Y-62148D01*
X44720Y-62240D01*
X44790Y-62311D01*
X44882Y-62349D01*
X44981Y-62349D01*
X45581Y-62349D01*
X45673Y-62311D01*
X45744Y-62241D01*
X45782Y-62149D01*
X45782Y-62126D01*
X45782Y-62126D01*
X45782Y-62366D01*
X45816Y-62538D01*
X45914Y-62684D01*
X46276Y-63046D01*
X46422Y-63144D01*
X46594Y-63178D01*
X54803Y-63178D01*
X54975Y-63144D01*
X55121Y-63046D01*
X55570Y-62597D01*
X55667Y-62451D01*
X55701Y-62279D01*
X55701Y-62138D01*
X55717Y-62122D01*
X55751Y-62041D01*
X55785Y-62122D01*
X55801Y-62138D01*
X55801Y-62656D01*
X55418Y-63040D01*
X55320Y-63186D01*
X55286Y-63358D01*
X55286Y-64907D01*
X55274Y-64919D01*
X55191Y-65119D01*
X55190Y-65336D01*
X55273Y-65536D01*
X55426Y-65690D01*
X55627Y-65773D01*
X55844Y-65773D01*
X56044Y-65690D01*
X56057Y-65678D01*
X57966Y-65678D01*
X57978Y-65690D01*
X58178Y-65773D01*
X58395Y-65773D01*
X58595Y-65690D01*
X58608Y-65678D01*
X58797Y-65678D01*
X59679Y-66560D01*
X59679Y-71876D01*
X59218Y-72338D01*
X59037Y-72412D01*
X58889Y-72560D01*
X58809Y-72753D01*
X58809Y-72962D01*
X58889Y-73155D01*
X59036Y-73303D01*
X59229Y-73383D01*
X59438Y-73383D01*
X59631Y-73303D01*
X59779Y-73156D01*
X59854Y-72974D01*
X60448Y-72381D01*
X60545Y-72235D01*
X60579Y-72063D01*
X60579Y-66374D01*
X60545Y-66201D01*
X60448Y-66055D01*
X59552Y-65159D01*
X59552Y-56961D01*
X59438Y-56685D01*
X59227Y-56474D01*
X58951Y-56360D01*
X58653Y-56360D01*
X58377Y-56474D01*
X58166Y-56684D01*
X58052Y-56960D01*
X58051Y-57258D01*
X58070Y-57303D01*
X57802Y-57302D01*
X57431Y-57455D01*
X57147Y-57739D01*
X56994Y-58109D01*
X56993Y-58510D01*
X57146Y-58881D01*
X57430Y-59165D01*
X57800Y-59318D01*
X58201Y-59319D01*
X58572Y-59166D01*
X58856Y-58882D01*
X59009Y-58512D01*
X59010Y-58111D01*
X58906Y-57860D01*
X58950Y-57860D01*
X59226Y-57746D01*
X59437Y-57535D01*
X59551Y-57260D01*
X59552Y-56961D01*
X59552Y-65159D01*
X59302Y-64910D01*
X59156Y-64812D01*
X58984Y-64778D01*
X58608Y-64778D01*
X58596Y-64766D01*
X58396Y-64683D01*
X58179Y-64682D01*
X58056Y-64733D01*
X58056Y-60892D01*
X58045Y-60674D01*
X57983Y-60523D01*
X57887Y-60495D01*
X57817Y-60566D01*
X57817Y-60425D01*
X57789Y-60329D01*
X57583Y-60256D01*
X57365Y-60267D01*
X57214Y-60329D01*
X57186Y-60425D01*
X57501Y-60740D01*
X57817Y-60425D01*
X57817Y-60566D01*
X57572Y-60811D01*
X57887Y-61126D01*
X57983Y-61098D01*
X58056Y-60892D01*
X58056Y-64733D01*
X57978Y-64765D01*
X57966Y-64778D01*
X56186Y-64778D01*
X56186Y-63544D01*
X56570Y-63160D01*
X56570Y-63160D01*
X56635Y-63063D01*
X56667Y-63014D01*
X56667Y-63014D01*
X56701Y-62842D01*
X56701Y-62842D01*
X56701Y-62138D01*
X56717Y-62122D01*
X56751Y-62041D01*
X56785Y-62122D01*
X56940Y-62277D01*
X57142Y-62360D01*
X57360Y-62361D01*
X57563Y-62277D01*
X57717Y-62122D01*
X57801Y-61920D01*
X57802Y-61702D01*
X57718Y-61499D01*
X57576Y-61357D01*
X57638Y-61354D01*
X57789Y-61292D01*
X57817Y-61196D01*
X57501Y-60881D01*
X57186Y-61196D01*
X57205Y-61260D01*
X57143Y-61260D01*
X56951Y-61339D01*
X56951Y-61138D01*
X56967Y-61122D01*
X56999Y-61047D01*
X57020Y-61098D01*
X57116Y-61126D01*
X57431Y-60811D01*
X57116Y-60495D01*
X57020Y-60523D01*
X57000Y-60578D01*
X56968Y-60499D01*
X56951Y-60483D01*
X56951Y-60289D01*
X56917Y-60117D01*
X56917Y-60117D01*
X56885Y-60068D01*
X56820Y-59971D01*
X56820Y-59971D01*
X56306Y-59457D01*
X56160Y-59359D01*
X55988Y-59325D01*
X54510Y-59325D01*
X54510Y-58111D01*
X54357Y-57740D01*
X54073Y-57456D01*
X53703Y-57303D01*
X53434Y-57302D01*
X53451Y-57260D01*
X53452Y-56961D01*
X53338Y-56685D01*
X53127Y-56474D01*
X52851Y-56360D01*
X52553Y-56360D01*
X52277Y-56474D01*
X52066Y-56684D01*
X51952Y-56960D01*
X51951Y-57258D01*
X52065Y-57534D01*
X52276Y-57745D01*
X52552Y-57860D01*
X52597Y-57860D01*
X52494Y-58109D01*
X52493Y-58510D01*
X52646Y-58881D01*
X52930Y-59165D01*
X53300Y-59318D01*
X53701Y-59319D01*
X54072Y-59166D01*
X54356Y-58882D01*
X54509Y-58512D01*
X54510Y-58111D01*
X54510Y-59325D01*
X51970Y-59325D01*
X51970Y-58689D01*
X51959Y-58481D01*
X51901Y-58341D01*
X51808Y-58317D01*
X51738Y-58387D01*
X51738Y-58246D01*
X51713Y-58153D01*
X51516Y-58084D01*
X51308Y-58095D01*
X51168Y-58153D01*
X51143Y-58246D01*
X51441Y-58543D01*
X51738Y-58246D01*
X51738Y-58387D01*
X51511Y-58614D01*
X51808Y-58911D01*
X51901Y-58886D01*
X51970Y-58689D01*
X51970Y-59325D01*
X51738Y-59325D01*
X51738Y-58981D01*
X51441Y-58684D01*
X51370Y-58755D01*
X51370Y-58614D01*
X51073Y-58317D01*
X50980Y-58341D01*
X50911Y-58538D01*
X50922Y-58746D01*
X50980Y-58886D01*
X51073Y-58911D01*
X51370Y-58614D01*
X51370Y-58755D01*
X51143Y-58981D01*
X51168Y-59074D01*
X51365Y-59144D01*
X51573Y-59132D01*
X51713Y-59074D01*
X51738Y-58981D01*
X51738Y-59325D01*
X50532Y-59325D01*
X50532Y-56949D01*
X50418Y-56674D01*
X50207Y-56462D01*
X49932Y-56348D01*
X49633Y-56348D01*
X49357Y-56462D01*
X49146Y-56673D01*
X49032Y-56948D01*
X49032Y-57246D01*
X49050Y-57291D01*
X48782Y-57291D01*
X48412Y-57444D01*
X48128Y-57727D01*
X47974Y-58097D01*
X47974Y-58498D01*
X48127Y-58869D01*
X48410Y-59153D01*
X48780Y-59307D01*
X49181Y-59307D01*
X49552Y-59154D01*
X49836Y-58870D01*
X49990Y-58500D01*
X49990Y-58099D01*
X49886Y-57848D01*
X49930Y-57848D01*
X50206Y-57734D01*
X50417Y-57523D01*
X50532Y-57248D01*
X50532Y-56949D01*
X50532Y-59325D01*
X47779Y-59325D01*
X47607Y-59359D01*
X47461Y-59457D01*
X47164Y-59754D01*
X47066Y-59900D01*
X47032Y-60072D01*
X47032Y-60471D01*
X47016Y-60487D01*
X46982Y-60569D01*
X46948Y-60488D01*
X46932Y-60471D01*
X46932Y-60261D01*
X46898Y-60089D01*
X46800Y-59943D01*
X46184Y-59327D01*
X46038Y-59229D01*
X45866Y-59195D01*
X44952Y-59195D01*
X45052Y-59154D01*
X45336Y-58870D01*
X45490Y-58500D01*
X45490Y-58099D01*
X45337Y-57728D01*
X45054Y-57445D01*
X44683Y-57291D01*
X44414Y-57291D01*
X44432Y-57248D01*
X44432Y-56949D01*
X44318Y-56674D01*
X44107Y-56462D01*
X43832Y-56348D01*
X43533Y-56348D01*
X43257Y-56462D01*
X43046Y-56673D01*
X42932Y-56948D01*
X42932Y-57246D01*
X43046Y-57522D01*
X43256Y-57733D01*
X43532Y-57848D01*
X43578Y-57848D01*
X43474Y-58097D01*
X43474Y-58498D01*
X43627Y-58869D01*
X43910Y-59153D01*
X44012Y-59195D01*
X42814Y-59195D01*
X42642Y-59229D01*
X42594Y-59262D01*
X42496Y-59327D01*
X41807Y-60016D01*
X41710Y-60162D01*
X41675Y-60334D01*
X41675Y-67125D01*
X41710Y-67298D01*
X41807Y-67444D01*
X44465Y-70101D01*
X44611Y-70199D01*
X44783Y-70233D01*
X48264Y-70233D01*
X48326Y-70295D01*
X48548Y-70387D01*
X48788Y-70387D01*
X49011Y-70296D01*
X49073Y-70233D01*
X49427Y-70233D01*
X49750Y-70556D01*
X49750Y-71542D01*
X46539Y-71542D01*
X46367Y-71576D01*
X46318Y-71608D01*
X46221Y-71673D01*
X44746Y-73148D01*
X44746Y-71884D01*
X44663Y-71683D01*
X44510Y-71530D01*
X44309Y-71446D01*
X44092Y-71446D01*
X43892Y-71529D01*
X43879Y-71542D01*
X42898Y-71542D01*
X42952Y-71487D01*
X42990Y-71395D01*
X42990Y-70588D01*
X42952Y-70496D01*
X42881Y-70425D01*
X42790Y-70387D01*
X42690Y-70387D01*
X42498Y-70387D01*
X42435Y-70450D01*
X42435Y-70942D01*
X42927Y-70942D01*
X42990Y-70879D01*
X42990Y-70588D01*
X42990Y-71395D01*
X42990Y-71104D01*
X42927Y-71042D01*
X42435Y-71042D01*
X42435Y-71050D01*
X42335Y-71050D01*
X42335Y-71042D01*
X42335Y-70942D01*
X42335Y-70450D01*
X42273Y-70387D01*
X42080Y-70387D01*
X41981Y-70387D01*
X41889Y-70425D01*
X41819Y-70496D01*
X41781Y-70588D01*
X41781Y-70879D01*
X41843Y-70942D01*
X42335Y-70942D01*
X42335Y-71042D01*
X41843Y-71042D01*
X41781Y-71104D01*
X41781Y-71395D01*
X41819Y-71487D01*
X41889Y-71558D01*
X41942Y-71580D01*
X41873Y-71649D01*
X41781Y-71871D01*
X41781Y-72111D01*
X41873Y-72334D01*
X42042Y-72504D01*
X42265Y-72596D01*
X42505Y-72596D01*
X42727Y-72504D01*
X42790Y-72442D01*
X43879Y-72442D01*
X43891Y-72454D01*
X44091Y-72537D01*
X44308Y-72537D01*
X44509Y-72454D01*
X44662Y-72301D01*
X44745Y-72101D01*
X44746Y-71884D01*
X44746Y-73148D01*
X44051Y-73843D01*
X43954Y-73989D01*
X43920Y-74161D01*
X43920Y-75704D01*
X43908Y-75716D01*
X43824Y-75916D01*
X43824Y-76133D01*
X43907Y-76334D01*
X44060Y-76487D01*
X44146Y-76522D01*
X44085Y-76548D01*
X44058Y-76643D01*
X44370Y-76954D01*
X44681Y-76643D01*
X44655Y-76548D01*
X44589Y-76524D01*
X44678Y-76488D01*
X44691Y-76475D01*
X46185Y-76475D01*
X46216Y-76507D01*
X46308Y-76545D01*
X46407Y-76545D01*
X47116Y-76545D01*
X47208Y-76507D01*
X47278Y-76437D01*
X47316Y-76345D01*
X47316Y-76245D01*
X47316Y-75551D01*
X47388Y-75623D01*
X47388Y-79633D01*
X47422Y-79806D01*
X47520Y-79952D01*
X48256Y-80688D01*
X48402Y-80785D01*
X48574Y-80820D01*
X53041Y-80820D01*
X53612Y-81391D01*
X53612Y-81650D01*
X53567Y-81695D01*
X53563Y-81706D01*
X53558Y-81696D01*
X53394Y-81532D01*
X53179Y-81443D01*
X52947Y-81442D01*
X52732Y-81531D01*
X52567Y-81695D01*
X52563Y-81706D01*
X52558Y-81696D01*
X52394Y-81532D01*
X52179Y-81443D01*
X51947Y-81442D01*
X51732Y-81531D01*
X51686Y-81577D01*
X50539Y-81577D01*
X50367Y-81611D01*
X50221Y-81709D01*
X50221Y-81709D01*
X50221Y-81709D01*
X49418Y-82512D01*
X49418Y-81801D01*
X49407Y-81584D01*
X49345Y-81435D01*
X49250Y-81408D01*
X49179Y-81479D01*
X49179Y-81337D01*
X49153Y-81243D01*
X48948Y-81170D01*
X48732Y-81181D01*
X48583Y-81243D01*
X48556Y-81337D01*
X48868Y-81649D01*
X49179Y-81337D01*
X49179Y-81479D01*
X48938Y-81720D01*
X49250Y-82032D01*
X49345Y-82005D01*
X49418Y-81801D01*
X49418Y-82512D01*
X49179Y-82750D01*
X49179Y-82102D01*
X48868Y-81791D01*
X48797Y-81861D01*
X48797Y-81720D01*
X48485Y-81408D01*
X48390Y-81435D01*
X48318Y-81639D01*
X48329Y-81856D01*
X48390Y-82005D01*
X48485Y-82032D01*
X48797Y-81720D01*
X48797Y-81861D01*
X48556Y-82102D01*
X48583Y-82197D01*
X48787Y-82270D01*
X49004Y-82259D01*
X49153Y-82197D01*
X49179Y-82102D01*
X49179Y-82750D01*
X48384Y-83546D01*
X47463Y-83546D01*
X47463Y-83076D01*
X47452Y-82860D01*
X47390Y-82711D01*
X47295Y-82684D01*
X47225Y-82754D01*
X47225Y-82613D01*
X47198Y-82518D01*
X46994Y-82445D01*
X46777Y-82456D01*
X46628Y-82518D01*
X46601Y-82613D01*
X46913Y-82925D01*
X47225Y-82613D01*
X47225Y-82754D01*
X46984Y-82996D01*
X47295Y-83307D01*
X47390Y-83281D01*
X47463Y-83076D01*
X47463Y-83546D01*
X47234Y-83546D01*
X47222Y-83534D01*
X47137Y-83498D01*
X47198Y-83473D01*
X47225Y-83378D01*
X46913Y-83066D01*
X46842Y-83137D01*
X46842Y-82996D01*
X46530Y-82684D01*
X46436Y-82711D01*
X46363Y-82915D01*
X46374Y-83132D01*
X46436Y-83281D01*
X46530Y-83307D01*
X46842Y-82996D01*
X46842Y-83137D01*
X46601Y-83378D01*
X46628Y-83473D01*
X46693Y-83496D01*
X46604Y-83533D01*
X46592Y-83546D01*
X45132Y-83546D01*
X45132Y-83076D01*
X45121Y-82860D01*
X45060Y-82711D01*
X44965Y-82684D01*
X44920Y-82729D01*
X44920Y-77106D01*
X44909Y-76889D01*
X44847Y-76740D01*
X44752Y-76713D01*
X44440Y-77025D01*
X44752Y-77337D01*
X44847Y-77310D01*
X44920Y-77106D01*
X44920Y-82729D01*
X44894Y-82754D01*
X44894Y-82613D01*
X44867Y-82518D01*
X44681Y-82452D01*
X44681Y-77408D01*
X44370Y-77096D01*
X44299Y-77167D01*
X44299Y-77025D01*
X43987Y-76713D01*
X43892Y-76740D01*
X43820Y-76944D01*
X43831Y-77161D01*
X43892Y-77310D01*
X43987Y-77337D01*
X44299Y-77025D01*
X44299Y-77167D01*
X44058Y-77408D01*
X44085Y-77502D01*
X44289Y-77575D01*
X44506Y-77564D01*
X44655Y-77502D01*
X44681Y-77408D01*
X44681Y-82452D01*
X44663Y-82445D01*
X44446Y-82456D01*
X44297Y-82518D01*
X44270Y-82613D01*
X44582Y-82925D01*
X44894Y-82613D01*
X44894Y-82754D01*
X44653Y-82996D01*
X44965Y-83307D01*
X45060Y-83281D01*
X45132Y-83076D01*
X45132Y-83546D01*
X44903Y-83546D01*
X44891Y-83534D01*
X44806Y-83498D01*
X44867Y-83473D01*
X44894Y-83378D01*
X44582Y-83066D01*
X44511Y-83137D01*
X44511Y-82996D01*
X44200Y-82684D01*
X44105Y-82711D01*
X44032Y-82915D01*
X44043Y-83132D01*
X44105Y-83281D01*
X44200Y-83307D01*
X44511Y-82996D01*
X44511Y-83137D01*
X44270Y-83378D01*
X44297Y-83473D01*
X44363Y-83496D01*
X44274Y-83533D01*
X44120Y-83686D01*
X44037Y-83887D01*
X44037Y-84104D01*
X44120Y-84304D01*
X44273Y-84458D01*
X44473Y-84541D01*
X44690Y-84541D01*
X44891Y-84458D01*
X44903Y-84446D01*
X46592Y-84446D01*
X46604Y-84458D01*
X46804Y-84541D01*
X47021Y-84541D01*
X47221Y-84458D01*
X47234Y-84446D01*
X48570Y-84446D01*
X48743Y-84411D01*
X48889Y-84314D01*
X50725Y-82477D01*
X51612Y-82477D01*
X51612Y-82905D01*
X51647Y-83077D01*
X51744Y-83223D01*
X52555Y-84034D01*
X52555Y-84034D01*
X52701Y-84132D01*
X52701Y-84132D01*
X52874Y-84166D01*
X52874Y-84166D01*
X57057Y-84166D01*
X57057Y-84336D01*
X57120Y-84398D01*
X57532Y-84398D01*
X57532Y-84390D01*
X57632Y-84390D01*
X57632Y-84398D01*
X58045Y-84398D01*
X58107Y-84336D01*
X58107Y-84166D01*
X60118Y-84166D01*
X60290Y-84132D01*
X60436Y-84034D01*
X60940Y-83530D01*
X61037Y-83384D01*
X61072Y-83212D01*
X61072Y-84550D01*
X60935Y-84494D01*
X60522Y-84493D01*
X60141Y-84651D01*
X59849Y-84943D01*
X59691Y-85324D01*
X59690Y-85736D01*
X59848Y-86118D01*
X60053Y-86324D01*
X58107Y-86324D01*
X58107Y-84773D01*
X58107Y-84561D01*
X58045Y-84498D01*
X57632Y-84498D01*
X57632Y-84911D01*
X57695Y-84973D01*
X57808Y-84973D01*
X57907Y-84973D01*
X57999Y-84935D01*
X58069Y-84865D01*
X58107Y-84773D01*
X58107Y-86324D01*
X57532Y-86324D01*
X57532Y-84911D01*
X57532Y-84498D01*
X57120Y-84498D01*
X57057Y-84561D01*
X57057Y-84773D01*
X57095Y-84865D01*
X57165Y-84935D01*
X57257Y-84973D01*
X57357Y-84973D01*
X57470Y-84973D01*
X57532Y-84911D01*
X57532Y-86324D01*
X41396Y-86324D01*
X41396Y-84848D01*
X41386Y-84592D01*
X41306Y-84399D01*
X41201Y-84361D01*
X41131Y-84431D01*
X41131Y-84290D01*
X41092Y-84185D01*
X40852Y-84096D01*
X40596Y-84105D01*
X40403Y-84185D01*
X40364Y-84290D01*
X40748Y-84673D01*
X41131Y-84290D01*
X41131Y-84431D01*
X40818Y-84744D01*
X41201Y-85127D01*
X41306Y-85088D01*
X41396Y-84848D01*
X41396Y-86324D01*
X41131Y-86324D01*
X41131Y-85197D01*
X40748Y-84814D01*
X40677Y-84885D01*
X40677Y-84744D01*
X40294Y-84361D01*
X40280Y-84366D01*
X40280Y-81360D01*
X40269Y-81143D01*
X40207Y-80994D01*
X40112Y-80968D01*
X40066Y-81014D01*
X40066Y-65118D01*
X40066Y-63129D01*
X40031Y-62957D01*
X39934Y-62811D01*
X37286Y-60164D01*
X37278Y-60158D01*
X37278Y-58235D01*
X37126Y-57867D01*
X36845Y-57585D01*
X36478Y-57433D01*
X36080Y-57432D01*
X35712Y-57584D01*
X35431Y-57865D01*
X35278Y-58233D01*
X35278Y-58631D01*
X35430Y-58998D01*
X35711Y-59280D01*
X36078Y-59432D01*
X36476Y-59433D01*
X36844Y-59281D01*
X37125Y-59000D01*
X37278Y-58632D01*
X37278Y-58235D01*
X37278Y-60158D01*
X37140Y-60066D01*
X36968Y-60032D01*
X35984Y-60032D01*
X34076Y-60032D01*
X34076Y-59537D01*
X34066Y-59281D01*
X33987Y-59088D01*
X33882Y-59050D01*
X33499Y-59433D01*
X33882Y-59816D01*
X33987Y-59777D01*
X34076Y-59537D01*
X34076Y-60032D01*
X33675Y-60032D01*
X33772Y-59991D01*
X33811Y-59886D01*
X33428Y-59503D01*
X33422Y-59509D01*
X33352Y-59438D01*
X33357Y-59433D01*
X33352Y-59427D01*
X33422Y-59356D01*
X33428Y-59362D01*
X33811Y-58979D01*
X33772Y-58874D01*
X33532Y-58785D01*
X33427Y-58788D01*
X33521Y-58561D01*
X33522Y-58305D01*
X33424Y-58068D01*
X33243Y-57887D01*
X33006Y-57789D01*
X32750Y-57789D01*
X32514Y-57887D01*
X32332Y-58067D01*
X32328Y-58078D01*
X32324Y-58068D01*
X32143Y-57887D01*
X31906Y-57789D01*
X31650Y-57789D01*
X31414Y-57887D01*
X31253Y-58047D01*
X31093Y-57887D01*
X30856Y-57789D01*
X30600Y-57789D01*
X30364Y-57887D01*
X30182Y-58067D01*
X30178Y-58078D01*
X30174Y-58068D01*
X29993Y-57887D01*
X29756Y-57789D01*
X29500Y-57789D01*
X29264Y-57887D01*
X29082Y-58067D01*
X28984Y-58304D01*
X28984Y-58560D01*
X29079Y-58789D01*
X28635Y-58789D01*
X28543Y-58827D01*
X28472Y-58897D01*
X28434Y-58989D01*
X28434Y-59088D01*
X28434Y-59876D01*
X28472Y-59968D01*
X28542Y-60038D01*
X28620Y-60070D01*
X28620Y-63627D01*
X27415Y-64832D01*
X27415Y-64757D01*
X27415Y-63970D01*
X27377Y-63878D01*
X27307Y-63807D01*
X27278Y-63795D01*
X27278Y-58235D01*
X27126Y-57867D01*
X26845Y-57585D01*
X26478Y-57433D01*
X26080Y-57432D01*
X25712Y-57584D01*
X25431Y-57865D01*
X25278Y-58233D01*
X25278Y-58631D01*
X25430Y-58998D01*
X25711Y-59280D01*
X26078Y-59432D01*
X26476Y-59433D01*
X26844Y-59281D01*
X27125Y-59000D01*
X27278Y-58632D01*
X27278Y-58235D01*
X27278Y-63795D01*
X27215Y-63769D01*
X27115Y-63769D01*
X26328Y-63769D01*
X26236Y-63807D01*
X26166Y-63877D01*
X26130Y-63963D01*
X25704Y-63963D01*
X25532Y-63997D01*
X25386Y-64095D01*
X24563Y-64918D01*
X24466Y-65064D01*
X24445Y-65169D01*
X24419Y-65194D01*
X24336Y-65394D01*
X24336Y-65611D01*
X24419Y-65812D01*
X24572Y-65965D01*
X24772Y-66049D01*
X24989Y-66049D01*
X25190Y-65966D01*
X25343Y-65813D01*
X25427Y-65612D01*
X25427Y-65395D01*
X25407Y-65347D01*
X25891Y-64863D01*
X26130Y-64863D01*
X26165Y-64948D01*
X26236Y-65018D01*
X26249Y-65024D01*
X26226Y-65048D01*
X26128Y-65284D01*
X26127Y-65540D01*
X26225Y-65777D01*
X26361Y-65913D01*
X26226Y-66048D01*
X26128Y-66284D01*
X26127Y-66540D01*
X26225Y-66777D01*
X26406Y-66958D01*
X26643Y-67056D01*
X26899Y-67057D01*
X27135Y-66959D01*
X27231Y-66863D01*
X30248Y-66863D01*
X30343Y-66958D01*
X30580Y-67056D01*
X30836Y-67057D01*
X31072Y-66959D01*
X31169Y-66863D01*
X34185Y-66863D01*
X34280Y-66958D01*
X34517Y-67056D01*
X34773Y-67057D01*
X35009Y-66959D01*
X35106Y-66863D01*
X38122Y-66863D01*
X38132Y-66873D01*
X38132Y-75892D01*
X38093Y-75876D01*
X37993Y-75876D01*
X37285Y-75876D01*
X37193Y-75913D01*
X37157Y-75950D01*
X35154Y-75950D01*
X35092Y-75887D01*
X34870Y-75795D01*
X34630Y-75795D01*
X34408Y-75887D01*
X34249Y-76045D01*
X34092Y-75887D01*
X33870Y-75795D01*
X33630Y-75795D01*
X33408Y-75887D01*
X33249Y-76045D01*
X33092Y-75887D01*
X32870Y-75795D01*
X32630Y-75795D01*
X32408Y-75887D01*
X32249Y-76045D01*
X32092Y-75887D01*
X31870Y-75795D01*
X31630Y-75795D01*
X31408Y-75887D01*
X31249Y-76045D01*
X31200Y-75995D01*
X31200Y-75066D01*
X34312Y-71953D01*
X36292Y-71953D01*
X36304Y-71965D01*
X36505Y-72049D01*
X36722Y-72049D01*
X36922Y-71966D01*
X37076Y-71813D01*
X37159Y-71612D01*
X37159Y-71395D01*
X37076Y-71195D01*
X36923Y-71041D01*
X36723Y-70958D01*
X36506Y-70958D01*
X36305Y-71041D01*
X36293Y-71053D01*
X34125Y-71053D01*
X33953Y-71088D01*
X33807Y-71185D01*
X30431Y-74561D01*
X30334Y-74707D01*
X30300Y-74879D01*
X30300Y-75995D01*
X30249Y-76045D01*
X30200Y-75995D01*
X30200Y-74617D01*
X32768Y-72049D01*
X32785Y-72049D01*
X32985Y-71966D01*
X33139Y-71813D01*
X33222Y-71612D01*
X33222Y-71395D01*
X33139Y-71195D01*
X32986Y-71041D01*
X32786Y-70958D01*
X32569Y-70958D01*
X32368Y-71041D01*
X32215Y-71194D01*
X32131Y-71394D01*
X32131Y-71412D01*
X29431Y-74112D01*
X29334Y-74258D01*
X29300Y-74431D01*
X29300Y-75995D01*
X29249Y-76045D01*
X29190Y-75985D01*
X29190Y-71825D01*
X29202Y-71813D01*
X29285Y-71612D01*
X29285Y-71395D01*
X29202Y-71195D01*
X29049Y-71041D01*
X28849Y-70958D01*
X28632Y-70958D01*
X28431Y-71041D01*
X28278Y-71194D01*
X28194Y-71394D01*
X28194Y-71611D01*
X28277Y-71812D01*
X28290Y-71824D01*
X28290Y-76005D01*
X28249Y-76045D01*
X28092Y-75887D01*
X27870Y-75795D01*
X27782Y-75795D01*
X25331Y-73345D01*
X25331Y-71825D01*
X25343Y-71813D01*
X25427Y-71612D01*
X25427Y-71395D01*
X25344Y-71195D01*
X25191Y-71041D01*
X24990Y-70958D01*
X24773Y-70958D01*
X24573Y-71041D01*
X24419Y-71194D01*
X24336Y-71394D01*
X24336Y-71611D01*
X24419Y-71812D01*
X24431Y-71824D01*
X24431Y-73531D01*
X24466Y-73704D01*
X24563Y-73850D01*
X27145Y-76432D01*
X27145Y-76519D01*
X27237Y-76741D01*
X27407Y-76912D01*
X27629Y-77004D01*
X27869Y-77004D01*
X28091Y-76912D01*
X28250Y-76754D01*
X28407Y-76912D01*
X28629Y-77004D01*
X28869Y-77004D01*
X29091Y-76912D01*
X29250Y-76754D01*
X29407Y-76912D01*
X29629Y-77004D01*
X29869Y-77004D01*
X30091Y-76912D01*
X30250Y-76754D01*
X30407Y-76912D01*
X30629Y-77004D01*
X30869Y-77004D01*
X31091Y-76912D01*
X31250Y-76754D01*
X31407Y-76912D01*
X31629Y-77004D01*
X31869Y-77004D01*
X32091Y-76912D01*
X32250Y-76754D01*
X32407Y-76912D01*
X32629Y-77004D01*
X32869Y-77004D01*
X33091Y-76912D01*
X33250Y-76754D01*
X33407Y-76912D01*
X33629Y-77004D01*
X33869Y-77004D01*
X34091Y-76912D01*
X34250Y-76754D01*
X34407Y-76912D01*
X34629Y-77004D01*
X34869Y-77004D01*
X35091Y-76912D01*
X35154Y-76850D01*
X37084Y-76850D01*
X37084Y-76884D01*
X37122Y-76976D01*
X37192Y-77046D01*
X37284Y-77084D01*
X37384Y-77084D01*
X38092Y-77084D01*
X38184Y-77046D01*
X38255Y-76976D01*
X38277Y-76923D01*
X38280Y-76926D01*
X38280Y-80958D01*
X38268Y-80970D01*
X38184Y-81171D01*
X38184Y-81387D01*
X38267Y-81588D01*
X38329Y-81650D01*
X38329Y-84283D01*
X38234Y-84378D01*
X38135Y-84615D01*
X38135Y-84871D01*
X38233Y-85108D01*
X38414Y-85289D01*
X38650Y-85387D01*
X38907Y-85387D01*
X39143Y-85290D01*
X39324Y-85109D01*
X39423Y-84872D01*
X39423Y-84616D01*
X39325Y-84379D01*
X39229Y-84283D01*
X39229Y-81509D01*
X39252Y-81565D01*
X39347Y-81591D01*
X39659Y-81280D01*
X39347Y-80968D01*
X39252Y-80994D01*
X39229Y-81060D01*
X39192Y-80971D01*
X39180Y-80958D01*
X39180Y-76844D01*
X39201Y-76823D01*
X39293Y-76601D01*
X39293Y-76360D01*
X39201Y-76138D01*
X39032Y-75969D01*
X39032Y-66873D01*
X39128Y-66778D01*
X39226Y-66541D01*
X39226Y-66285D01*
X39128Y-66049D01*
X38993Y-65913D01*
X39043Y-65863D01*
X39320Y-65863D01*
X39493Y-65829D01*
X39639Y-65731D01*
X39934Y-65436D01*
X40031Y-65290D01*
X40066Y-65118D01*
X40066Y-81014D01*
X40041Y-81038D01*
X40041Y-80897D01*
X40015Y-80802D01*
X39810Y-80729D01*
X39593Y-80740D01*
X39444Y-80802D01*
X39418Y-80897D01*
X39730Y-81209D01*
X40041Y-80897D01*
X40041Y-81038D01*
X39800Y-81280D01*
X40112Y-81591D01*
X40207Y-81565D01*
X40280Y-81360D01*
X40280Y-84366D01*
X40189Y-84399D01*
X40100Y-84639D01*
X40109Y-84895D01*
X40189Y-85088D01*
X40294Y-85127D01*
X40677Y-84744D01*
X40677Y-84885D01*
X40364Y-85197D01*
X40403Y-85302D01*
X40643Y-85392D01*
X40899Y-85382D01*
X41092Y-85302D01*
X41131Y-85197D01*
X41131Y-86324D01*
X40041Y-86324D01*
X40041Y-81662D01*
X39730Y-81350D01*
X39418Y-81662D01*
X39444Y-81757D01*
X39649Y-81830D01*
X39866Y-81819D01*
X40015Y-81757D01*
X40041Y-81662D01*
X40041Y-86324D01*
X35358Y-86324D01*
X35358Y-79494D01*
X35348Y-79254D01*
X35276Y-79079D01*
X35175Y-79045D01*
X35104Y-79116D01*
X35104Y-78974D01*
X35070Y-78873D01*
X34844Y-78791D01*
X34604Y-78801D01*
X34429Y-78873D01*
X34395Y-78974D01*
X34750Y-79329D01*
X35104Y-78974D01*
X35104Y-79116D01*
X34820Y-79400D01*
X35175Y-79754D01*
X35276Y-79720D01*
X35358Y-79494D01*
X35358Y-86324D01*
X35104Y-86324D01*
X35104Y-79825D01*
X34750Y-79470D01*
X34679Y-79541D01*
X34679Y-79400D01*
X34324Y-79045D01*
X34265Y-79065D01*
X34262Y-79058D01*
X34092Y-78887D01*
X33870Y-78795D01*
X33630Y-78795D01*
X33408Y-78887D01*
X33249Y-79045D01*
X33092Y-78887D01*
X32870Y-78795D01*
X32630Y-78795D01*
X32408Y-78887D01*
X32249Y-79045D01*
X32092Y-78887D01*
X31870Y-78795D01*
X31630Y-78795D01*
X31408Y-78887D01*
X31249Y-79045D01*
X31092Y-78887D01*
X30870Y-78795D01*
X30630Y-78795D01*
X30408Y-78887D01*
X30249Y-79045D01*
X30092Y-78887D01*
X29870Y-78795D01*
X29630Y-78795D01*
X29408Y-78887D01*
X29249Y-79045D01*
X29092Y-78887D01*
X28870Y-78795D01*
X28630Y-78795D01*
X28408Y-78887D01*
X28338Y-78957D01*
X28316Y-78904D01*
X28246Y-78833D01*
X28154Y-78795D01*
X28054Y-78795D01*
X27346Y-78795D01*
X27254Y-78833D01*
X27183Y-78903D01*
X27145Y-78995D01*
X27145Y-79095D01*
X27145Y-79803D01*
X27183Y-79895D01*
X27253Y-79966D01*
X27282Y-79977D01*
X27282Y-84690D01*
X27253Y-84718D01*
X27167Y-84926D01*
X27167Y-85151D01*
X27253Y-85358D01*
X27411Y-85518D01*
X27619Y-85604D01*
X27844Y-85604D01*
X28051Y-85518D01*
X28210Y-85359D01*
X28232Y-85308D01*
X28253Y-85358D01*
X28411Y-85518D01*
X28619Y-85604D01*
X28844Y-85604D01*
X29051Y-85518D01*
X29210Y-85359D01*
X29232Y-85308D01*
X29253Y-85358D01*
X29411Y-85518D01*
X29619Y-85604D01*
X29844Y-85604D01*
X30051Y-85518D01*
X30167Y-85403D01*
X30167Y-85403D01*
X30205Y-85495D01*
X30275Y-85566D01*
X30367Y-85604D01*
X30466Y-85604D01*
X31096Y-85604D01*
X31188Y-85566D01*
X31259Y-85496D01*
X31297Y-85404D01*
X31297Y-85304D01*
X31297Y-84674D01*
X31259Y-84582D01*
X31200Y-84523D01*
X31200Y-79804D01*
X31250Y-79754D01*
X31407Y-79912D01*
X31629Y-80004D01*
X31869Y-80004D01*
X32091Y-79912D01*
X32250Y-79754D01*
X32407Y-79912D01*
X32629Y-80004D01*
X32869Y-80004D01*
X33091Y-79912D01*
X33250Y-79754D01*
X33407Y-79912D01*
X33629Y-80004D01*
X33869Y-80004D01*
X34091Y-79912D01*
X34262Y-79742D01*
X34265Y-79734D01*
X34324Y-79754D01*
X34679Y-79400D01*
X34679Y-79541D01*
X34395Y-79825D01*
X34429Y-79926D01*
X34655Y-80008D01*
X34895Y-79998D01*
X35070Y-79926D01*
X35104Y-79825D01*
X35104Y-86324D01*
X24296Y-86324D01*
X24501Y-86119D01*
X24659Y-85738D01*
X24659Y-85326D01*
X24502Y-84944D01*
X24210Y-84652D01*
X23829Y-84494D01*
X23416Y-84493D01*
X23035Y-84651D01*
X22809Y-84876D01*
X22809Y-57900D01*
X22809Y-56855D01*
X23033Y-57079D01*
X23414Y-57238D01*
X23827Y-57238D01*
X24208Y-57080D01*
X24501Y-56789D01*
X24659Y-56408D01*
X24659Y-55995D01*
X24502Y-55613D01*
X24258Y-55369D01*
X60092Y-55369D01*
X59849Y-55612D01*
X59691Y-55993D01*
X59690Y-56406D01*
X59848Y-56787D01*
X60139Y-57079D01*
X60521Y-57238D01*
X60933Y-57238D01*
X61315Y-57080D01*
X61607Y-56789D01*
X61644Y-56700D01*
X61644Y-85031D01*
M02*
