M48
;DRILL file {Pcbnew (2013-07-07 BZR 4022)-stable} date 12-Nov-13 6:41:20 PM
;FORMAT={-:-/ absolute / metric / decimal}
FMAT,2
METRIC,TZ
T1C0.600
T2C0.813
T3C1.000
T4C1.016
T5C1.778
T6C3.048
T7C3.250
T8C4.000
%
G90
G05
M71
T1
X63.2Y-166.38
X63.2Y-181.62
X73.Y-166.38
X73.Y-181.62
X83.Y-166.38
X83.Y-181.62
X93.Y-166.38
X93.Y-181.62
X95.73Y-194.26
X98.27Y-194.26
X98.374Y-206.451
X100.914Y-206.451
X107.66Y-180.32
X107.66Y-182.86
X112.27Y-182.86
X112.7Y-193.105
X112.7Y-195.645
X113.24Y-210.81
X113.24Y-213.35
X118.65Y-187.81
X118.65Y-190.35
X118.65Y-192.89
X119.16Y-210.81
X119.16Y-213.35
X123.62Y-174.71
X123.62Y-177.25
X124.125Y-192.33
X124.125Y-207.57
X127.51Y-182.86
X130.66Y-148.88
X130.66Y-154.88
X132.24Y-208.35
X134.78Y-208.35
X137.32Y-208.35
X139.86Y-208.35
X141.22Y-194.76
X141.22Y-197.3
X141.57Y-165.68
X141.57Y-180.92
X141.63Y-185.54
X141.63Y-188.08
X142.4Y-208.35
X145.54Y-198.14
X145.54Y-204.14
X146.26Y-208.5
X146.26Y-214.5
X148.05Y-165.68
X148.05Y-180.92
X149.56Y-195.13
X149.56Y-197.67
X149.56Y-200.21
X150.71Y-185.06
X150.71Y-191.06
T2
X70.44Y-216.
X70.485Y-194.056
X70.485Y-201.676
X72.98Y-216.
X73.025Y-194.056
X73.025Y-201.676
X75.52Y-216.
X75.565Y-194.056
X75.565Y-201.676
X78.06Y-216.
X78.105Y-194.056
X78.105Y-201.676
X80.645Y-194.056
X80.645Y-201.676
X83.185Y-194.056
X83.185Y-201.676
X85.725Y-194.056
X85.725Y-201.676
X88.265Y-194.056
X88.265Y-201.676
X129.94Y-189.765
X129.94Y-192.305
X129.94Y-194.845
X129.94Y-197.385
X137.56Y-189.765
X137.56Y-192.305
X137.56Y-194.845
X137.56Y-197.385
T3
X98.5Y-215.25
X103.5Y-215.25
T4
X68.Y-163.61
X68.Y-166.15
X68.Y-168.69
X73.859Y-150.96
X75.256Y-148.42
X76.653Y-150.96
X78.Y-163.61
X78.Y-166.15
X78.Y-168.69
X78.05Y-148.42
X79.32Y-150.96
X80.717Y-148.42
X82.114Y-150.96
X83.511Y-148.42
X84.908Y-150.96
X88.Y-163.61
X88.Y-166.15
X88.Y-168.69
X98.Y-163.61
X98.Y-166.15
X98.Y-168.69
X114.89Y-156.97
X115.525Y-154.43
X117.43Y-156.97
X118.065Y-154.43
X119.97Y-156.97
X120.605Y-154.43
X122.51Y-156.97
X123.145Y-154.43
X137.8Y-157.
X138.435Y-154.46
X140.34Y-157.
X140.975Y-154.46
X142.88Y-157.
X143.515Y-154.46
X145.42Y-157.
X146.055Y-154.46
T5
X110.953Y-145.03
X126.447Y-145.03
X133.863Y-145.06
X149.357Y-145.06
T6
X66.747Y-148.42
X92.147Y-148.42
T7
X112.985Y-148.08
X124.415Y-148.08
X135.895Y-148.11
X147.325Y-148.11
T8
X60.Y-142.75
X60.Y-217.25
X154.25Y-142.75
X154.25Y-217.25
T0
M30
